<svg width="1366" height="1539" viewBox="0 0 1366 1539" fill="none" xmlns="http://www.w3.org/2000/svg">
<g clip-path="url(#clip0_15_264)">
<rect width="1366" height="1539" fill="url(#paint0_linear_15_264)"/>
<path d="M1349.86 394.681C1349.7 395.601 1349.4 396.446 1348.96 397.215C1348.53 397.984 1347.92 398.608 1347.14 399.087C1346.36 399.567 1345.5 399.724 1344.56 399.559C1343.4 399.353 1342.42 398.726 1341.62 397.676C1340.83 396.626 1340.3 395.463 1340.05 394.185C1339.8 392.908 1339.78 391.709 1339.98 390.59C1340.14 389.669 1340.44 388.825 1340.87 388.055C1341.31 387.286 1341.92 386.662 1342.7 386.183C1343.48 385.704 1344.34 385.547 1345.27 385.712C1346.45 385.92 1347.44 386.548 1348.23 387.596C1349.01 388.645 1349.53 389.804 1349.78 391.073C1350.03 392.343 1350.06 393.546 1349.86 394.681ZM1340.03 404.405C1339.81 405.633 1339.3 406.642 1338.5 407.433C1337.7 408.224 1336.7 408.516 1335.52 408.308C1334.36 408.102 1333.35 407.485 1332.49 406.457C1331.64 405.428 1331.05 404.269 1330.72 402.978C1330.4 401.687 1330.33 400.474 1330.53 399.339C1330.75 398.112 1331.26 397.099 1332.07 396.3C1332.87 395.501 1333.86 395.205 1335.05 395.413C1336.21 395.619 1337.22 396.236 1338.08 397.264C1338.93 398.293 1339.52 399.456 1339.84 400.755C1340.17 402.054 1340.23 403.27 1340.03 404.405ZM1349.21 405.383C1351.02 405.702 1352.84 406.794 1354.68 408.66C1356.51 410.526 1357.95 412.653 1358.98 415.042C1360.02 417.43 1360.38 419.506 1360.07 421.27C1359.94 421.976 1359.71 422.54 1359.37 422.961C1359.02 423.383 1358.59 423.663 1358.07 423.8C1357.55 423.937 1357.02 424.003 1356.5 423.998C1355.98 423.994 1355.39 423.933 1354.73 423.817C1353.69 423.633 1352.31 423.034 1350.6 422.021C1348.89 421.007 1347.55 420.415 1346.58 420.245C1345.57 420.067 1344.04 420.148 1341.98 420.488C1339.91 420.828 1338.32 420.898 1337.18 420.698C1334.38 420.203 1333.17 418.836 1333.56 416.597C1333.8 415.278 1334.49 413.885 1335.63 412.418C1336.77 410.952 1338.1 409.664 1339.62 408.555C1341.14 407.447 1342.77 406.581 1344.53 405.957C1346.28 405.333 1347.84 405.142 1349.21 405.383ZM1355.56 401.498C1354.62 401.333 1353.87 400.892 1353.3 400.175C1352.73 399.457 1352.37 398.663 1352.23 397.791C1352.08 396.919 1352.09 396.023 1352.25 395.103C1352.45 393.968 1352.89 392.846 1353.56 391.739C1354.23 390.631 1355.11 389.72 1356.21 389.004C1357.31 388.288 1358.45 388.035 1359.63 388.243C1360.56 388.408 1361.32 388.849 1361.89 389.566C1362.46 390.283 1362.81 391.078 1362.96 391.95C1363.11 392.822 1363.1 393.718 1362.94 394.638C1362.74 395.758 1362.31 396.875 1361.63 397.991C1360.96 399.106 1360.07 400.02 1358.97 400.735C1357.86 401.449 1356.73 401.703 1355.56 401.498ZM1365.92 400.858C1367.1 401.066 1367.93 401.683 1368.42 402.709C1368.9 403.735 1369.03 404.862 1368.82 406.089C1368.62 407.224 1368.14 408.342 1367.4 409.444C1366.65 410.546 1365.7 411.434 1364.54 412.108C1363.39 412.782 1362.23 413.016 1361.06 412.811C1359.88 412.602 1359.05 411.989 1358.56 410.971C1358.08 409.952 1357.94 408.829 1358.16 407.602C1358.36 406.467 1358.84 405.345 1359.58 404.236C1360.33 403.126 1361.29 402.235 1362.44 401.56C1363.59 400.886 1364.76 400.652 1365.92 400.858Z" fill="white"/>
<path d="M46.8345 33.1014C48.6407 35.681 49.9407 38.4068 50.7344 41.2788C51.528 44.1509 51.5661 47.0875 50.8484 50.0888C50.1308 53.0901 48.4607 55.5088 45.8382 57.3452C42.5708 59.633 38.7388 60.4742 34.3424 59.8685C29.9459 59.2629 25.9287 57.7349 22.2909 55.2846C18.653 52.8343 15.7353 50.0399 13.5377 46.9015C11.7315 44.322 10.4316 41.5962 9.63789 38.7241C8.84421 35.852 8.80618 32.9154 9.5238 29.9141C10.2414 26.9129 11.9115 24.4941 14.534 22.6578C17.8444 20.3398 21.6871 19.4911 26.0621 20.1118C30.4371 20.7325 34.436 22.2573 38.0588 24.6861C41.6816 27.1149 44.6068 29.92 46.8345 33.1014ZM46.5895 79.6925C48.9977 83.1319 50.1871 86.752 50.1575 90.5529C50.128 94.3538 48.458 97.4133 45.1476 99.7313C41.8801 102.019 38.0031 102.956 33.5163 102.542C29.0296 102.127 24.8598 100.77 21.007 98.4705C17.1542 96.1707 14.1139 93.4301 11.8863 90.2487C9.47798 86.8093 8.28109 83.1784 8.29561 79.356C8.31013 75.5336 9.97259 72.4634 13.283 70.1455C16.5504 67.8576 20.4275 66.9208 24.9143 67.3351C29.401 67.7494 33.5783 69.1172 37.4462 71.4385C41.314 73.7597 44.3618 76.5111 46.5895 79.6925ZM70.7787 60.1601C75.8518 56.6079 82.8009 54.8656 91.626 54.9331C100.451 55.0007 108.941 56.6484 117.096 59.8763C125.25 63.1042 131.059 67.1903 134.521 72.1344C135.905 74.112 136.691 76.0124 136.879 77.8354C137.066 79.6584 136.701 81.3558 135.783 82.9274C134.865 84.4991 133.78 85.8998 132.527 87.1297C131.273 88.3596 129.723 89.6217 127.874 90.9162C124.95 92.9632 120.242 94.8181 113.75 96.4808C107.258 98.1436 102.658 99.9232 99.9491 101.82C97.1116 103.807 93.6434 107.661 89.5445 113.382C85.4455 119.103 81.8054 123.078 78.6239 125.305C70.7563 130.814 64.625 130.43 60.2299 124.153C57.6409 120.456 55.9623 115.497 55.194 109.275C54.4256 103.054 54.5269 96.8159 55.4977 90.5619C56.4686 84.3079 58.3015 78.3472 60.9966 72.6799C63.6917 67.0126 66.9524 62.8393 70.7787 60.1601ZM76.6637 35.7609C74.0412 37.5972 71.1971 38.3393 68.1314 37.9872C65.0657 37.635 62.3191 36.5949 59.8917 34.8668C57.4643 33.1386 55.3475 30.9848 53.5413 28.4053C51.3136 25.2238 49.6782 21.5156 48.6349 17.2806C47.5917 13.0456 47.5266 8.76636 48.4397 4.44293C49.3527 0.119497 51.4645 -3.20121 54.7749 -5.51918C57.3974 -7.3555 60.2415 -8.09759 63.3072 -7.74544C66.3729 -7.3933 69.1195 -6.35316 71.5469 -4.62504C73.9743 -2.89692 76.0911 -0.743084 77.8973 1.83646C80.0949 4.9749 81.7228 8.67237 82.7811 12.9289C83.8394 17.1854 83.9013 21.4829 82.9667 25.8214C82.0321 30.1599 79.9311 33.473 76.6637 35.7609ZM99.8266 9.54698C103.137 7.22901 106.591 6.71687 110.187 8.01056C113.784 9.30426 116.787 11.6708 119.195 15.1102C121.423 18.2916 122.958 22.0859 123.802 26.4929C124.645 30.8999 124.494 35.2824 123.349 39.6402C122.204 43.9981 119.997 47.3209 116.73 49.6088C113.419 51.9268 109.973 52.4497 106.392 51.1775C102.81 49.9053 99.8147 47.5495 97.4064 44.1101C95.1788 40.9287 93.6357 37.1237 92.7773 32.6952C91.9189 28.2666 92.0624 23.8734 93.2076 19.5156C94.3529 15.1577 96.5592 11.8349 99.8266 9.54698Z" fill="#F1E9DA"/>
<path d="M172.359 113.252C172.516 114.74 172.428 116.172 172.096 117.548C171.764 118.925 171.104 120.154 170.114 121.235C169.125 122.317 167.874 122.938 166.361 123.097C164.476 123.295 162.69 122.762 161.003 121.497C159.316 120.233 157.998 118.673 157.051 116.817C156.104 114.961 155.535 113.127 155.345 111.317C155.188 109.829 155.276 108.397 155.608 107.021C155.939 105.645 156.6 104.416 157.59 103.334C158.579 102.252 159.83 101.632 161.343 101.473C163.252 101.272 165.045 101.804 166.72 103.07C168.394 104.336 169.705 105.89 170.651 107.734C171.597 109.578 172.166 111.417 172.359 113.252ZM161.526 132.556C161.734 134.54 161.395 136.318 160.507 137.89C159.619 139.463 158.221 140.35 156.311 140.55C154.426 140.748 152.6 140.245 150.831 139.039C149.062 137.833 147.642 136.309 146.57 134.466C145.499 132.623 144.867 130.784 144.674 128.949C144.466 126.965 144.805 125.181 145.691 123.596C146.578 122.011 147.976 121.118 149.885 120.917C151.77 120.719 153.597 121.223 155.365 122.428C157.134 123.634 158.555 125.164 159.628 127.02C160.7 128.875 161.333 130.721 161.526 132.556ZM176.076 130.011C179.002 129.703 182.291 130.58 185.943 132.641C189.594 134.702 192.743 137.342 195.388 140.561C198.033 143.781 199.505 146.817 199.805 149.669C199.925 150.809 199.814 151.78 199.472 152.581C199.13 153.381 198.587 154.002 197.843 154.444C197.1 154.886 196.326 155.218 195.522 155.44C194.718 155.663 193.783 155.83 192.717 155.942C191.031 156.119 188.647 155.806 185.566 155.001C182.486 154.197 180.164 153.877 178.602 154.041C176.965 154.213 174.636 155.015 171.615 156.449C168.594 157.882 166.166 158.695 164.331 158.888C159.793 159.365 157.334 157.793 156.953 154.172C156.729 152.04 157.174 149.592 158.287 146.83C159.401 144.068 160.88 141.499 162.724 139.124C164.568 136.749 166.702 134.694 169.128 132.96C171.553 131.226 173.869 130.243 176.076 130.011ZM184.142 121.228C182.629 121.387 181.276 121.04 180.083 120.188C178.891 119.335 177.989 118.27 177.378 116.993C176.768 115.716 176.384 114.333 176.228 112.846C176.035 111.01 176.209 109.093 176.751 107.093C177.293 105.093 178.252 103.3 179.627 101.713C181.002 100.127 182.645 99.2337 184.554 99.033C186.067 98.874 187.42 99.2207 188.612 100.073C189.805 100.926 190.707 101.99 191.318 103.268C191.928 104.545 192.312 105.927 192.468 107.415C192.658 109.226 192.483 111.137 191.942 113.149C191.402 115.162 190.438 116.962 189.05 118.549C187.662 120.137 186.026 121.03 184.142 121.228ZM199.804 115.67C201.714 115.47 203.267 116.052 204.464 117.418C205.66 118.784 206.363 120.459 206.571 122.443C206.764 124.278 206.528 126.209 205.864 128.234C205.199 130.26 204.127 132.046 202.647 133.593C201.168 135.14 199.485 136.013 197.601 136.211C195.691 136.411 194.139 135.835 192.943 134.481C191.748 133.128 191.046 131.459 190.838 129.475C190.645 127.64 190.88 125.703 191.543 123.665C192.207 121.628 193.278 119.835 194.758 118.288C196.238 116.741 197.92 115.868 199.804 115.67Z" fill="#EEDECF"/>
<path d="M1348.77 303.353C1348.11 304.698 1347.28 305.866 1346.27 306.857C1345.26 307.849 1344.04 308.541 1342.63 308.934C1341.22 309.327 1339.83 309.19 1338.46 308.524C1336.76 307.693 1335.53 306.294 1334.77 304.328C1334 302.361 1333.71 300.34 1333.89 298.264C1334.07 296.188 1334.56 294.332 1335.36 292.696C1336.02 291.351 1336.85 290.183 1337.86 289.192C1338.87 288.201 1340.08 287.509 1341.5 287.116C1342.91 286.722 1344.3 286.859 1345.67 287.526C1347.39 288.368 1348.63 289.769 1349.38 291.73C1350.13 293.691 1350.42 295.704 1350.24 297.769C1350.07 299.833 1349.57 301.695 1348.77 303.353ZM1329.35 313.983C1328.47 315.776 1327.24 317.104 1325.66 317.967C1324.07 318.83 1322.42 318.841 1320.69 317.999C1318.99 317.169 1317.7 315.773 1316.84 313.814C1315.98 311.854 1315.59 309.809 1315.65 307.678C1315.72 305.547 1316.16 303.653 1316.97 301.994C1317.84 300.201 1319.08 298.868 1320.67 297.993C1322.26 297.119 1323.92 297.102 1325.64 297.944C1327.35 298.775 1328.63 300.17 1329.49 302.13C1330.35 304.09 1330.75 306.141 1330.67 308.283C1330.6 310.424 1330.16 312.325 1329.35 313.983ZM1343.04 319.535C1345.68 320.825 1348.01 323.312 1350.01 326.994C1352.02 330.677 1353.29 334.584 1353.82 338.716C1354.36 342.848 1354 346.203 1352.74 348.78C1352.24 349.811 1351.63 350.576 1350.92 351.073C1350.2 351.571 1349.41 351.81 1348.55 351.791C1347.68 351.771 1346.85 351.643 1346.05 351.406C1345.25 351.168 1344.37 350.814 1343.41 350.344C1341.88 349.601 1340.03 348.072 1337.84 345.757C1335.66 343.443 1333.86 341.941 1332.45 341.252C1330.97 340.531 1328.57 339.977 1325.24 339.592C1321.92 339.206 1319.43 338.609 1317.77 337.8C1313.67 335.8 1312.42 333.164 1314.02 329.892C1314.96 327.964 1316.63 326.125 1319.04 324.372C1321.45 322.62 1324.06 321.225 1326.88 320.188C1329.71 319.151 1332.61 318.54 1335.58 318.354C1338.56 318.169 1341.04 318.563 1343.04 319.535ZM1354.53 316.361C1353.16 315.694 1352.2 314.683 1351.64 313.328C1351.08 311.973 1350.88 310.592 1351.04 309.186C1351.2 307.779 1351.61 306.403 1352.26 305.059C1353.07 303.4 1354.23 301.866 1355.75 300.457C1357.27 299.049 1359.04 298.036 1361.04 297.419C1363.05 296.803 1364.92 296.916 1366.64 297.757C1368.01 298.424 1368.97 299.435 1369.53 300.79C1370.09 302.145 1370.29 303.526 1370.13 304.933C1369.98 306.339 1369.57 307.715 1368.91 309.06C1368.11 310.696 1366.95 312.224 1365.43 313.644C1363.9 315.064 1362.13 316.08 1360.11 316.691C1358.1 317.302 1356.23 317.192 1354.53 316.361ZM1370.76 319.948C1372.48 320.79 1373.49 322.107 1373.78 323.899C1374.07 325.692 1373.78 327.485 1372.91 329.278C1372.1 330.936 1370.88 332.448 1369.24 333.814C1367.6 335.179 1365.75 336.126 1363.67 336.654C1361.6 337.181 1359.71 337.03 1358.01 336.199C1356.28 335.358 1355.27 334.046 1354.97 332.265C1354.68 330.483 1354.97 328.696 1355.84 326.903C1356.65 325.245 1357.87 323.727 1359.52 322.351C1361.16 320.974 1363.02 320.021 1365.09 319.494C1367.17 318.966 1369.06 319.117 1370.76 319.948Z" fill="#EEDECF"/>
<path d="M62.0608 248.917C62.7747 249.631 63.3369 250.419 63.7474 251.282C64.1579 252.144 64.3334 253.069 64.2739 254.057C64.2144 255.045 63.8217 255.901 63.0959 256.627C62.1916 257.531 61.0286 258.01 59.6067 258.064C58.1848 258.117 56.8314 257.859 55.5464 257.287C54.2613 256.716 53.1845 255.996 52.3159 255.128C51.602 254.414 51.0398 253.626 50.6293 252.763C50.2188 251.9 50.0433 250.975 50.1028 249.988C50.1623 249 50.555 248.144 51.2808 247.418C52.197 246.502 53.363 246.02 54.7789 245.972C56.1948 245.924 57.5423 246.183 58.8214 246.748C60.1005 247.314 61.1803 248.036 62.0608 248.917ZM64.5773 263.641C65.5291 264.593 66.1062 265.67 66.3085 266.872C66.5108 268.073 66.1538 269.132 65.2376 270.049C64.3334 270.953 63.1614 271.464 61.7216 271.583C60.2819 271.702 58.8898 271.506 57.5453 270.994C56.2008 270.483 55.0883 269.787 54.2078 268.906C53.2559 267.954 52.6759 266.875 52.4676 265.667C52.2594 264.459 52.6134 263.397 53.5296 262.481C54.4339 261.577 55.6059 261.065 57.0456 260.946C58.4853 260.827 59.8804 261.027 61.2308 261.544C62.5813 262.062 63.6968 262.761 64.5773 263.641ZM71.1274 256.127C72.5314 254.723 74.6285 253.786 77.4187 253.316C80.2088 252.846 82.9812 252.894 85.7357 253.459C88.4901 254.024 90.5515 254.991 91.9199 256.359C92.4672 256.907 92.8212 257.463 92.9818 258.028C93.1424 258.593 93.1216 259.15 92.9193 259.697C92.7171 260.244 92.4523 260.747 92.1251 261.205C91.7979 261.663 91.3785 262.148 90.8669 262.66C90.0578 263.469 88.6746 264.316 86.7173 265.203C84.76 266.089 83.4065 266.907 82.6569 267.657C81.8716 268.442 80.9912 269.852 80.0155 271.887C79.0398 273.921 78.1117 275.379 77.2313 276.26C75.0538 278.437 73.0965 278.657 71.3594 276.92C70.3361 275.897 69.53 274.424 68.941 272.503C68.3521 270.581 68.0367 268.606 67.9951 266.577C67.9535 264.548 68.2003 262.564 68.7358 260.625C69.2712 258.686 70.0684 257.186 71.1274 256.127ZM71.6271 248.096C70.9013 248.822 70.0446 249.214 69.057 249.274C68.0695 249.333 67.1444 249.158 66.2817 248.747C65.4191 248.337 64.6308 247.775 63.9169 247.061C63.0364 246.18 62.3136 245.1 61.7484 243.821C61.1832 242.542 60.9245 241.195 60.972 239.779C61.0196 238.363 61.5015 237.197 62.4177 236.281C63.1435 235.555 64.0002 235.162 64.9878 235.103C65.9753 235.043 66.9004 235.219 67.7631 235.629C68.6257 236.04 69.414 236.602 70.1279 237.316C70.9965 238.185 71.7163 239.261 72.2875 240.546C72.8586 241.831 73.1174 243.185 73.0638 244.607C73.0103 246.029 72.5314 247.192 71.6271 248.096ZM77.4811 238.53C78.3973 237.613 79.4592 237.259 80.6669 237.468C81.8746 237.676 82.9544 238.256 83.9063 239.208C84.7868 240.088 85.4828 241.201 85.9945 242.545C86.5061 243.89 86.7024 245.282 86.5834 246.722C86.4644 248.161 85.9528 249.333 85.0485 250.238C84.1323 251.154 83.0734 251.511 81.8716 251.308C80.6699 251.106 79.5931 250.529 78.6412 249.577C77.7607 248.697 77.0617 247.581 76.5441 246.231C76.0265 244.88 75.8272 243.485 75.9462 242.046C76.0652 240.606 76.5768 239.434 77.4811 238.53Z" fill="#EEDECF"/>
<path d="M102.952 768C71.294 694.272 26.973 500.66 102.952 316.037C178.931 131.414 230.25 232.715 246.412 306.443H320.891C322.026 269.561 351.707 197.41 388.872 206.244C423.125 214.386 443.317 273.606 450.5 306.443L1183.15 306.443C1206.15 307.154 1255.63 292.799 1269.63 229.695C1287.12 150.815 1189.65 196.117 1148.16 159.342C1106.67 122.567 1140.5 86 1171.5 79.5C1203.3 72.8324 1266.01 90.3566 1293.5 125C1308 143.272 1333 166 1318.61 229.695C1307.96 276.853 1279.29 299.87 1269.63 306.443C1328.11 389.765 1393.13 594.783 1288.66 767.467H1266.63L102.952 768Z" fill="url(#paint1_linear_15_264)"/>
</g>
<defs>
<linearGradient id="paint0_linear_15_264" x1="683" y1="0" x2="683" y2="1539" gradientUnits="userSpaceOnUse">
<stop offset="0.192308" stop-color="#F8F2E6"/>
<stop offset="0.519231" stop-color="#F0E1D2"/>
</linearGradient>
<linearGradient id="paint1_linear_15_264" x1="702.5" y1="78.1027" x2="702.5" y2="768" gradientUnits="userSpaceOnUse">
<stop stop-color="#F0E1D2"/>
</linearGradient>
<clipPath id="clip0_15_264">
<rect width="1366" height="1539" fill="white"/>
</clipPath>
</defs>
</svg>
