<svg width="57" height="35" viewBox="0 0 57 35" fill="none" xmlns="http://www.w3.org/2000/svg">
<mask id="path-1-outside-1_21_267" maskUnits="userSpaceOnUse" x="-2.92939" y="-3.25305" width="61.2688" height="40.2709" fill="black">
<rect fill="white" x="-2.92939" y="-3.25305" width="61.2688" height="40.2709"/>
<path d="M7.2958 4.2361C7.12748 4.22561 7.00335 4.31927 6.92344 4.51707C6.84352 4.71487 6.43101 5.50451 5.68592 6.88598C7.31326 7.41405 8.42626 7.75587 9.0249 7.91146C9.62354 8.06704 9.98705 8.19953 10.1154 8.30891C10.2438 8.4183 10.3866 8.6342 10.544 8.95662C10.6766 9.26905 10.7129 9.49944 10.653 9.64779C10.5931 9.79614 10.4106 9.9453 10.1055 10.0953C9.79808 10.2155 9.48102 10.2528 9.15436 10.2071C8.82769 10.1614 8.17223 9.96849 7.18798 9.62835L4.94738 8.87409C4.60561 9.61321 4.38404 10.3218 4.28265 10.9999C4.18126 11.6779 4.28984 12.1388 4.6084 12.3826C4.96404 12.6413 7.03675 13.6154 10.8265 15.3047L10.8653 15.9028C10.8867 16.1703 10.8774 16.3534 10.8374 16.4523C10.7974 16.5512 10.6894 16.6586 10.5132 16.7743C10.337 16.8901 10.2142 16.9627 10.1447 16.9922C10.0753 17.0217 9.91566 17.0075 9.66579 16.9497C9.41592 16.8919 9.13646 16.8005 8.82739 16.6756C8.51833 16.5508 7.98425 16.3422 7.22515 16.0499C5.18534 15.2257 3.81242 14.5128 3.10638 13.9112C2.40035 13.3096 2.03159 12.5494 2.00011 11.6307C2.00185 11.1281 2.1909 10.1619 2.56725 8.73214C2.94359 7.30234 3.21618 6.52088 3.38501 6.38777C3.55883 6.24229 3.85764 5.75185 4.28145 4.91644C4.70526 4.08104 4.98946 3.51998 5.13406 3.23328C5.27866 2.94657 5.46522 2.69838 5.69373 2.48872C5.92224 2.27905 6.12947 2.13988 6.3154 2.0712C6.50134 2.00251 6.775 1.98366 7.13638 2.01462C7.51012 2.05058 7.88006 2.11376 8.24619 2.20416C8.61231 2.29457 9.3593 2.51009 10.4872 2.85073C11.615 3.19136 12.3534 3.37467 12.7025 3.40064C13.6059 3.47805 14.172 3.74989 14.4006 4.21616C14.5285 4.46915 14.5375 4.73163 14.4276 5.00361C14.3177 5.27558 14.1239 5.47051 13.8462 5.58839C13.5808 5.71127 12.9805 5.68443 12.0452 5.50787C11.1099 5.33131 10.1266 5.07783 9.09529 4.74743C8.06396 4.41703 7.46413 4.24659 7.2958 4.2361ZM17.9473 14.3205C17.9968 14.3405 18.0587 14.3296 18.1331 14.2878C18.2075 14.2459 18.8115 13.5696 19.9451 12.2588C21.0787 10.948 21.6889 10.2742 21.7757 10.2373C21.9766 10.1316 22.2389 10.1585 22.5627 10.3181C22.8865 10.4776 23.1099 10.6901 23.2327 10.9555C23.3556 11.2208 23.2552 11.6117 22.9316 12.128C22.6079 12.6444 21.7974 13.6183 20.5 15.0499C19.2273 16.4914 18.4096 17.3762 18.047 17.7043C17.6844 18.0323 17.29 18.2253 16.864 18.2833C16.4379 18.3412 16.1279 18.1297 15.934 17.6487C15.74 17.1677 15.6135 16.1818 15.5542 14.6911C15.495 13.2003 15.3144 12.0991 15.0123 11.3875C14.5729 10.304 14.6507 9.63079 15.2459 9.36793C15.841 9.10507 16.3837 9.34588 16.8738 10.0904C17.3639 10.8348 17.6345 11.7135 17.6854 12.7263C17.7364 13.7392 17.8237 14.2706 17.9473 14.3205ZM28.0977 16.3939C27.4166 15.7305 26.8516 15.5094 26.4027 15.7307C26.1224 15.8906 26.081 16.0465 26.2785 16.1982C26.4761 16.3499 26.9357 16.6003 27.6575 16.9495C28.3546 17.2886 28.6886 17.3517 28.6596 17.1386C28.6551 17.0074 28.4678 16.7592 28.0977 16.3939ZM31.2125 18.8819C31.0976 19.1662 30.7923 19.388 30.2965 19.5472C29.8132 19.7114 29.3463 19.7457 28.896 19.6501C28.4457 19.5544 27.6556 19.2855 26.5256 18.8434C25.3957 18.4012 24.7591 18.1081 24.616 17.964C24.4729 17.8199 24.3914 17.7725 24.3714 17.822L24.3616 18.4868C24.3686 19.3237 24.5648 19.8703 24.9502 20.1266C25.3405 20.3706 26.0433 20.482 27.0585 20.4608C28.0738 20.4395 28.6816 20.4478 28.882 20.4857C29.0948 20.5285 29.2923 20.6802 29.4746 20.9408C29.6693 21.2064 29.7091 21.5173 29.594 21.8734C29.4788 22.2296 29.2701 22.4616 28.9676 22.5695C28.6652 22.6774 28.0782 22.7422 27.2065 22.7639C26.3399 22.7733 25.7458 22.749 25.4241 22.6909C25.0974 22.6452 24.6536 22.4802 24.0925 22.196C23.5315 21.9118 23.081 21.5141 22.7411 21.0029C22.4012 20.4917 22.2004 19.8497 22.1387 19.077C22.077 18.3043 22.1613 17.5618 22.3915 16.8495C22.6465 16.1472 22.9815 15.5851 23.3964 15.1632C23.8113 14.7412 24.3562 14.3358 25.031 13.9469C25.7058 13.5581 26.2426 13.3507 26.6413 13.3249C27.04 13.299 27.5756 13.4507 28.2479 13.7798C28.9202 14.109 29.4327 14.4599 29.7855 14.8325C30.3774 15.503 30.8119 16.225 31.089 16.9985C31.3661 17.772 31.4073 18.3998 31.2125 18.8819ZM37.8064 26.0974C37.4726 25.9626 37.2841 25.6994 37.2409 25.3081C37.1976 24.9167 37.2643 24.2534 37.4409 23.3181C37.7883 21.6753 37.8153 20.6652 37.5219 20.2878C37.4554 20.2034 37.3664 20.1746 37.2548 20.2015C36.8459 20.3239 36.0339 21.3548 34.8189 23.2942C34.4206 23.9242 34.0254 24.3685 33.6333 24.6271C33.2462 24.8733 32.9204 24.9143 32.6561 24.75C32.4041 24.5906 32.2596 24.5035 32.2225 24.4885C32.0741 24.4286 32.028 24.1511 32.0842 23.6561C32.1404 23.1611 32.3466 22.2593 32.7027 20.9508C33.0588 19.6422 33.2244 18.645 33.1996 17.9591C33.1715 16.7829 33.4905 16.1712 34.1567 16.124C34.875 16.0547 35.3054 16.5378 35.4478 17.5732L35.5672 18.5058L36.3893 18.1261C36.8208 17.9122 37.2767 17.816 37.757 17.8375C38.2373 17.8589 38.628 17.9952 38.9292 18.2463C39.4279 18.6492 39.7501 19.2755 39.8957 20.1252C40.0463 20.9626 40.0031 21.9949 39.7661 23.2222C39.5291 24.4494 39.27 25.2867 38.9886 25.7338C38.6949 26.176 38.3009 26.2972 37.8064 26.0974ZM44.1823 21.059C44.2843 20.9133 44.5001 20.4324 44.8298 19.6165C45.1594 18.8006 45.4681 18.3213 45.7558 18.1787C46.0435 18.0361 46.3728 18.0397 46.7437 18.1896C47.1146 18.3394 47.3092 18.605 47.3277 18.9864C47.3462 19.3677 47.2093 19.938 46.917 20.6971L46.385 22.0137L47.442 22.4407C48.0107 22.6705 48.3763 22.9045 48.5389 23.1428C48.7015 23.381 48.7017 23.6831 48.5395 24.049C48.3773 24.4148 48.1673 24.632 47.9096 24.7004C47.6518 24.7689 47.2411 24.682 46.6775 24.4399C46.1138 24.1978 45.7799 24.0988 45.6757 24.143C45.5716 24.1872 45.3486 24.9528 45.0067 26.4396C44.6648 27.9265 44.5332 28.7505 44.6119 28.9117C44.6905 29.0729 45.0025 29.0839 45.5477 28.9447C46.4424 28.6878 47.0051 28.8433 47.2359 29.4111C47.3759 29.7408 47.3512 30.0688 47.1619 30.395C46.9726 30.7212 46.6623 30.9553 46.231 31.0974C44.3001 31.7122 43.0836 31.2351 42.5814 29.666C42.4122 29.195 42.371 28.6031 42.4576 27.8904C42.5443 27.1776 42.7206 26.3141 42.9865 25.2999C43.2649 24.2906 43.3819 23.734 43.3377 23.6298C43.2935 23.5257 43.1107 23.4087 42.7893 23.2788C42.4679 23.1489 42.2553 23.0343 42.1517 22.9349C42.053 22.8232 41.9732 22.6471 41.9121 22.4067C41.8 21.9012 41.9486 21.5155 42.3581 21.2495C42.7675 20.9835 43.2442 20.9604 43.7882 21.1802C43.9489 21.2451 44.0802 21.2047 44.1823 21.059ZM48.5136 31.7392C48.3734 31.4813 48.3557 31.2225 48.4606 30.9629C48.5655 30.7032 48.7593 30.5083 49.042 30.3781C49.4686 30.1765 49.8621 30.2348 50.2224 30.553C50.5828 30.8712 50.6706 31.259 50.4858 31.7164C50.301 32.1738 49.9783 32.4029 49.5178 32.4038C49.0573 32.4047 48.7226 32.1832 48.5136 31.7392ZM50.7304 25.4518C50.9516 24.4771 51.2221 23.5941 51.5418 22.8029C51.8614 22.0117 52.0847 21.5123 52.2117 21.3048C52.3387 21.0972 52.5176 20.9394 52.7482 20.8313C53.3383 20.5808 53.8045 20.726 54.1468 21.2669C54.2552 21.4258 54.2692 21.6759 54.1888 22.0173C54.1084 22.3587 53.8229 23.2788 53.3325 24.7775C52.8172 26.2662 52.5047 27.1466 52.3948 27.4185C52.2849 27.6905 52.1382 27.8757 51.9546 27.9741C51.7711 28.0725 51.5062 28.0518 51.1601 27.9119C50.8139 27.7721 50.6066 27.5733 50.5382 27.3155C50.4451 27.0478 50.5091 26.4266 50.7304 25.4518Z"/>
</mask>
<path d="M7.2958 4.2361C7.12748 4.22561 7.00335 4.31927 6.92344 4.51707C6.84352 4.71487 6.43101 5.50451 5.68592 6.88598C7.31326 7.41405 8.42626 7.75587 9.0249 7.91146C9.62354 8.06704 9.98705 8.19953 10.1154 8.30891C10.2438 8.4183 10.3866 8.6342 10.544 8.95662C10.6766 9.26905 10.7129 9.49944 10.653 9.64779C10.5931 9.79614 10.4106 9.9453 10.1055 10.0953C9.79808 10.2155 9.48102 10.2528 9.15436 10.2071C8.82769 10.1614 8.17223 9.96849 7.18798 9.62835L4.94738 8.87409C4.60561 9.61321 4.38404 10.3218 4.28265 10.9999C4.18126 11.6779 4.28984 12.1388 4.6084 12.3826C4.96404 12.6413 7.03675 13.6154 10.8265 15.3047L10.8653 15.9028C10.8867 16.1703 10.8774 16.3534 10.8374 16.4523C10.7974 16.5512 10.6894 16.6586 10.5132 16.7743C10.337 16.8901 10.2142 16.9627 10.1447 16.9922C10.0753 17.0217 9.91566 17.0075 9.66579 16.9497C9.41592 16.8919 9.13646 16.8005 8.82739 16.6756C8.51833 16.5508 7.98425 16.3422 7.22515 16.0499C5.18534 15.2257 3.81242 14.5128 3.10638 13.9112C2.40035 13.3096 2.03159 12.5494 2.00011 11.6307C2.00185 11.1281 2.1909 10.1619 2.56725 8.73214C2.94359 7.30234 3.21618 6.52088 3.38501 6.38777C3.55883 6.24229 3.85764 5.75185 4.28145 4.91644C4.70526 4.08104 4.98946 3.51998 5.13406 3.23328C5.27866 2.94657 5.46522 2.69838 5.69373 2.48872C5.92224 2.27905 6.12947 2.13988 6.3154 2.0712C6.50134 2.00251 6.775 1.98366 7.13638 2.01462C7.51012 2.05058 7.88006 2.11376 8.24619 2.20416C8.61231 2.29457 9.3593 2.51009 10.4872 2.85073C11.615 3.19136 12.3534 3.37467 12.7025 3.40064C13.6059 3.47805 14.172 3.74989 14.4006 4.21616C14.5285 4.46915 14.5375 4.73163 14.4276 5.00361C14.3177 5.27558 14.1239 5.47051 13.8462 5.58839C13.5808 5.71127 12.9805 5.68443 12.0452 5.50787C11.1099 5.33131 10.1266 5.07783 9.09529 4.74743C8.06396 4.41703 7.46413 4.24659 7.2958 4.2361ZM17.9473 14.3205C17.9968 14.3405 18.0587 14.3296 18.1331 14.2878C18.2075 14.2459 18.8115 13.5696 19.9451 12.2588C21.0787 10.948 21.6889 10.2742 21.7757 10.2373C21.9766 10.1316 22.2389 10.1585 22.5627 10.3181C22.8865 10.4776 23.1099 10.6901 23.2327 10.9555C23.3556 11.2208 23.2552 11.6117 22.9316 12.128C22.6079 12.6444 21.7974 13.6183 20.5 15.0499C19.2273 16.4914 18.4096 17.3762 18.047 17.7043C17.6844 18.0323 17.29 18.2253 16.864 18.2833C16.4379 18.3412 16.1279 18.1297 15.934 17.6487C15.74 17.1677 15.6135 16.1818 15.5542 14.6911C15.495 13.2003 15.3144 12.0991 15.0123 11.3875C14.5729 10.304 14.6507 9.63079 15.2459 9.36793C15.841 9.10507 16.3837 9.34588 16.8738 10.0904C17.3639 10.8348 17.6345 11.7135 17.6854 12.7263C17.7364 13.7392 17.8237 14.2706 17.9473 14.3205ZM28.0977 16.3939C27.4166 15.7305 26.8516 15.5094 26.4027 15.7307C26.1224 15.8906 26.081 16.0465 26.2785 16.1982C26.4761 16.3499 26.9357 16.6003 27.6575 16.9495C28.3546 17.2886 28.6886 17.3517 28.6596 17.1386C28.6551 17.0074 28.4678 16.7592 28.0977 16.3939ZM31.2125 18.8819C31.0976 19.1662 30.7923 19.388 30.2965 19.5472C29.8132 19.7114 29.3463 19.7457 28.896 19.6501C28.4457 19.5544 27.6556 19.2855 26.5256 18.8434C25.3957 18.4012 24.7591 18.1081 24.616 17.964C24.4729 17.8199 24.3914 17.7725 24.3714 17.822L24.3616 18.4868C24.3686 19.3237 24.5648 19.8703 24.9502 20.1266C25.3405 20.3706 26.0433 20.482 27.0585 20.4608C28.0738 20.4395 28.6816 20.4478 28.882 20.4857C29.0948 20.5285 29.2923 20.6802 29.4746 20.9408C29.6693 21.2064 29.7091 21.5173 29.594 21.8734C29.4788 22.2296 29.2701 22.4616 28.9676 22.5695C28.6652 22.6774 28.0782 22.7422 27.2065 22.7639C26.3399 22.7733 25.7458 22.749 25.4241 22.6909C25.0974 22.6452 24.6536 22.4802 24.0925 22.196C23.5315 21.9118 23.081 21.5141 22.7411 21.0029C22.4012 20.4917 22.2004 19.8497 22.1387 19.077C22.077 18.3043 22.1613 17.5618 22.3915 16.8495C22.6465 16.1472 22.9815 15.5851 23.3964 15.1632C23.8113 14.7412 24.3562 14.3358 25.031 13.9469C25.7058 13.5581 26.2426 13.3507 26.6413 13.3249C27.04 13.299 27.5756 13.4507 28.2479 13.7798C28.9202 14.109 29.4327 14.4599 29.7855 14.8325C30.3774 15.503 30.8119 16.225 31.089 16.9985C31.3661 17.772 31.4073 18.3998 31.2125 18.8819ZM37.8064 26.0974C37.4726 25.9626 37.2841 25.6994 37.2409 25.3081C37.1976 24.9167 37.2643 24.2534 37.4409 23.3181C37.7883 21.6753 37.8153 20.6652 37.5219 20.2878C37.4554 20.2034 37.3664 20.1746 37.2548 20.2015C36.8459 20.3239 36.0339 21.3548 34.8189 23.2942C34.4206 23.9242 34.0254 24.3685 33.6333 24.6271C33.2462 24.8733 32.9204 24.9143 32.6561 24.75C32.4041 24.5906 32.2596 24.5035 32.2225 24.4885C32.0741 24.4286 32.028 24.1511 32.0842 23.6561C32.1404 23.1611 32.3466 22.2593 32.7027 20.9508C33.0588 19.6422 33.2244 18.645 33.1996 17.9591C33.1715 16.7829 33.4905 16.1712 34.1567 16.124C34.875 16.0547 35.3054 16.5378 35.4478 17.5732L35.5672 18.5058L36.3893 18.1261C36.8208 17.9122 37.2767 17.816 37.757 17.8375C38.2373 17.8589 38.628 17.9952 38.9292 18.2463C39.4279 18.6492 39.7501 19.2755 39.8957 20.1252C40.0463 20.9626 40.0031 21.9949 39.7661 23.2222C39.5291 24.4494 39.27 25.2867 38.9886 25.7338C38.6949 26.176 38.3009 26.2972 37.8064 26.0974ZM44.1823 21.059C44.2843 20.9133 44.5001 20.4324 44.8298 19.6165C45.1594 18.8006 45.4681 18.3213 45.7558 18.1787C46.0435 18.0361 46.3728 18.0397 46.7437 18.1896C47.1146 18.3394 47.3092 18.605 47.3277 18.9864C47.3462 19.3677 47.2093 19.938 46.917 20.6971L46.385 22.0137L47.442 22.4407C48.0107 22.6705 48.3763 22.9045 48.5389 23.1428C48.7015 23.381 48.7017 23.6831 48.5395 24.049C48.3773 24.4148 48.1673 24.632 47.9096 24.7004C47.6518 24.7689 47.2411 24.682 46.6775 24.4399C46.1138 24.1978 45.7799 24.0988 45.6757 24.143C45.5716 24.1872 45.3486 24.9528 45.0067 26.4396C44.6648 27.9265 44.5332 28.7505 44.6119 28.9117C44.6905 29.0729 45.0025 29.0839 45.5477 28.9447C46.4424 28.6878 47.0051 28.8433 47.2359 29.4111C47.3759 29.7408 47.3512 30.0688 47.1619 30.395C46.9726 30.7212 46.6623 30.9553 46.231 31.0974C44.3001 31.7122 43.0836 31.2351 42.5814 29.666C42.4122 29.195 42.371 28.6031 42.4576 27.8904C42.5443 27.1776 42.7206 26.3141 42.9865 25.2999C43.2649 24.2906 43.3819 23.734 43.3377 23.6298C43.2935 23.5257 43.1107 23.4087 42.7893 23.2788C42.4679 23.1489 42.2553 23.0343 42.1517 22.9349C42.053 22.8232 41.9732 22.6471 41.9121 22.4067C41.8 21.9012 41.9486 21.5155 42.3581 21.2495C42.7675 20.9835 43.2442 20.9604 43.7882 21.1802C43.9489 21.2451 44.0802 21.2047 44.1823 21.059ZM48.5136 31.7392C48.3734 31.4813 48.3557 31.2225 48.4606 30.9629C48.5655 30.7032 48.7593 30.5083 49.042 30.3781C49.4686 30.1765 49.8621 30.2348 50.2224 30.553C50.5828 30.8712 50.6706 31.259 50.4858 31.7164C50.301 32.1738 49.9783 32.4029 49.5178 32.4038C49.0573 32.4047 48.7226 32.1832 48.5136 31.7392ZM50.7304 25.4518C50.9516 24.4771 51.2221 23.5941 51.5418 22.8029C51.8614 22.0117 52.0847 21.5123 52.2117 21.3048C52.3387 21.0972 52.5176 20.9394 52.7482 20.8313C53.3383 20.5808 53.8045 20.726 54.1468 21.2669C54.2552 21.4258 54.2692 21.6759 54.1888 22.0173C54.1084 22.3587 53.8229 23.2788 53.3325 24.7775C52.8172 26.2662 52.5047 27.1466 52.3948 27.4185C52.2849 27.6905 52.1382 27.8757 51.9546 27.9741C51.7711 28.0725 51.5062 28.0518 51.1601 27.9119C50.8139 27.7721 50.6066 27.5733 50.5382 27.3155C50.4451 27.0478 50.5091 26.4266 50.7304 25.4518Z" fill="#FFFF00"/>
<path d="M7.2958 4.2361L7.17144 6.23223L7.17144 6.23223L7.2958 4.2361ZM5.68592 6.88598L3.92563 5.93657L2.78687 8.04792L5.06861 8.78833L5.68592 6.88598ZM9.0249 7.91146L9.52798 5.97576L9.52798 5.97576L9.0249 7.91146ZM10.1154 8.30891L11.4126 6.78663L11.4126 6.78662L10.1154 8.30891ZM10.544 8.95662L12.385 8.17516L12.3644 8.12675L12.3414 8.07948L10.544 8.95662ZM10.1055 10.0953L10.8341 11.9579L10.9124 11.9272L10.9879 11.8901L10.1055 10.0953ZM9.15436 10.2071L9.43145 8.2264L9.43145 8.2264L9.15436 10.2071ZM7.18798 9.62835L7.84124 7.73805L7.83366 7.73543L7.82607 7.73287L7.18798 9.62835ZM4.94738 8.87409L5.58547 6.97861L3.88506 6.40619L3.13205 8.03469L4.94738 8.87409ZM4.28265 10.9999L6.26066 11.2956V11.2956L4.28265 10.9999ZM4.60839 12.3826L3.39303 13.9709L3.41224 13.9856L3.4318 13.9999L4.60839 12.3826ZM10.8265 15.3047L12.8223 15.1753L12.7442 13.9698L11.6408 13.478L10.8265 15.3047ZM10.8653 15.9028L8.8695 16.0322L8.87046 16.0471L8.87165 16.062L10.8653 15.9028ZM10.5132 16.7743L11.6114 18.4459L10.5132 16.7743ZM9.66579 16.9497L10.1166 15.0011L10.1166 15.0011L9.66579 16.9497ZM7.22515 16.0499L6.47593 17.9042L6.49113 17.9104L6.50643 17.9163L7.22515 16.0499ZM3.10638 13.9112L4.40355 12.3889L3.10638 13.9112ZM2.00011 11.6307L0.000121034 11.6238L-9.73682e-06 11.6615L0.00128196 11.6992L2.00011 11.6307ZM2.56724 8.73214L4.50137 9.24123L2.56724 8.73214ZM3.38501 6.38777L4.62334 7.95829L4.64626 7.94021L4.66864 7.92148L3.38501 6.38777ZM4.28145 4.91644L6.06506 5.82129V5.82129L4.28145 4.91644ZM5.13406 3.23328L3.34832 2.33265V2.33265L5.13406 3.23328ZM5.69373 2.48872L7.04585 3.96241L7.04585 3.96241L5.69373 2.48872ZM7.13638 2.01462L7.32792 0.0238119L7.31752 0.0228117L7.30712 0.0219206L7.13638 2.01462ZM8.24619 2.20416L8.72563 0.262477L8.72562 0.262477L8.24619 2.20416ZM12.7025 3.40064L12.8732 1.40794L12.862 1.40698L12.8509 1.40615L12.7025 3.40064ZM14.4006 4.21616L12.6049 5.09673L12.6102 5.10758L12.6157 5.11836L14.4006 4.21616ZM13.8462 5.58839L13.0647 3.74738L13.0351 3.75998L13.0058 3.77353L13.8462 5.58839ZM12.0452 5.50787L12.4162 3.54258V3.54258L12.0452 5.50787ZM9.09529 4.74743L8.48511 6.65208L8.48511 6.65208L9.09529 4.74743ZM7.2958 4.2361L7.42017 2.23997C6.90299 2.20775 6.34839 2.34238 5.87183 2.70197C5.43206 3.03379 5.19631 3.45293 5.06907 3.76786L6.92344 4.51707L8.77781 5.26628C8.73048 5.38341 8.59675 5.65682 8.28111 5.89499C7.92866 6.16092 7.52029 6.25396 7.17144 6.23223L7.2958 4.2361ZM6.92344 4.51707L5.06907 3.76786C5.07418 3.7552 5.00591 3.90189 4.78143 4.33159C4.5812 4.71488 4.29662 5.24872 3.92563 5.93657L5.68592 6.88598L7.44621 7.83539C8.15268 6.52554 8.64414 5.59711 8.77781 5.26628L6.92344 4.51707ZM5.68592 6.88598L5.06861 8.78833C6.68998 9.31446 7.8572 9.67442 8.52182 9.84715L9.0249 7.91146L9.52798 5.97576C8.99532 5.83733 7.93655 5.51364 6.30322 4.98363L5.68592 6.88598ZM9.0249 7.91146L8.52182 9.84715C8.79131 9.91719 8.96392 9.97098 9.06165 10.0066C9.11018 10.0243 9.11549 10.0286 9.09251 10.0173C9.07981 10.011 9.04965 9.99572 9.00813 9.97017C8.96864 9.94587 8.89976 9.90065 8.81825 9.8312L10.1154 8.30891L11.4126 6.78662C11.0502 6.47785 10.622 6.31791 10.4314 6.24842C10.1656 6.15156 9.85712 6.06131 9.52798 5.97576L9.0249 7.91146ZM10.1154 8.30891L8.81825 9.8312C8.78079 9.79928 8.75113 9.77061 8.72895 9.74775C8.70668 9.7248 8.68988 9.70558 8.67832 9.69172C8.65605 9.66501 8.64727 9.65102 8.6509 9.65651C8.65407 9.6613 8.66457 9.67772 8.68194 9.70887C8.69911 9.73966 8.72073 9.78077 8.74659 9.83377L10.544 8.95662L12.3414 8.07948C12.1691 7.72636 11.8777 7.18295 11.4126 6.78663L10.1154 8.30891ZM10.544 8.95662L8.70298 9.73808C8.73157 9.80544 8.71111 9.77663 8.69513 9.67536C8.6811 9.58641 8.64439 9.28037 8.79864 8.89858L10.653 9.64779L12.5074 10.397C12.7216 9.86686 12.6967 9.37146 12.6463 9.05212C12.594 8.72045 12.489 8.42023 12.385 8.17516L10.544 8.95662ZM10.653 9.64779L8.79864 8.89858C8.94026 8.54806 9.15078 8.36709 9.2055 8.32237C9.27145 8.26846 9.29345 8.26588 9.22313 8.30045L10.1055 10.0953L10.9879 11.8901C11.2226 11.7747 11.4884 11.6226 11.7369 11.4195C11.9741 11.2256 12.3058 10.8959 12.5074 10.397L10.653 9.64779ZM10.1055 10.0953L9.37695 8.2327C9.37683 8.23275 9.3868 8.22909 9.4036 8.22711C9.41123 8.22621 9.41813 8.22593 9.42372 8.226C9.42926 8.22607 9.43201 8.22648 9.43145 8.2264L9.15436 10.2071L8.87726 12.1878C9.54402 12.2811 10.2074 12.203 10.8341 11.9579L10.1055 10.0953ZM9.15436 10.2071L9.43145 8.2264C9.44011 8.22761 9.40824 8.22324 9.3199 8.20177C9.23676 8.18158 9.12556 8.15164 8.98247 8.10953C8.69554 8.02508 8.3175 7.90264 7.84124 7.73805L7.18798 9.62835L6.53472 11.5187C7.48055 11.8455 8.3236 12.1104 8.87726 12.1878L9.15436 10.2071ZM7.18798 9.62835L7.82607 7.73287L5.58547 6.97861L4.94738 8.87409L4.30929 10.7696L6.54989 11.5238L7.18798 9.62835ZM4.94738 8.87409L3.13205 8.03469C2.725 8.91501 2.43883 9.80666 2.30464 10.7041L4.28265 10.9999L6.26066 11.2956C6.32924 10.837 6.48623 10.3114 6.76271 9.71348L4.94738 8.87409ZM4.28265 10.9999L2.30464 10.7041C2.17457 11.5739 2.16977 13.0349 3.39303 13.9709L4.60839 12.3826L5.82376 10.7942C5.94744 10.8888 6.04696 11.0032 6.11917 11.1223C6.1892 11.2378 6.2209 11.3367 6.23475 11.3955C6.25858 11.4966 6.23212 11.4865 6.26066 11.2956L4.28265 10.9999ZM4.60839 12.3826L3.4318 13.9999C3.67224 14.1748 4.01568 14.354 4.29174 14.4941C4.62142 14.6615 5.05301 14.8701 5.57903 15.1172C6.6334 15.6127 8.11322 16.2849 10.0122 17.1314L10.8265 15.3047L11.6408 13.478C9.75006 12.6351 8.29863 11.9756 7.28029 11.4971C6.76995 11.2572 6.37982 11.0682 6.10241 10.9274C5.77138 10.7593 5.72237 10.7197 5.78499 10.7653L4.60839 12.3826ZM10.8265 15.3047L8.83072 15.4341L8.8695 16.0322L10.8653 15.9028L12.8611 15.7734L12.8223 15.1753L10.8265 15.3047ZM10.8653 15.9028L8.87165 16.062C8.87826 16.1448 8.87566 16.1643 8.87692 16.1394C8.87764 16.1252 8.88033 16.0819 8.89144 16.0183C8.90185 15.9587 8.92584 15.8447 8.98304 15.7031L10.8374 16.4523L12.6918 17.2016C12.8342 16.8489 12.8627 16.5202 12.8718 16.3422C12.8823 16.1341 12.8737 15.9283 12.859 15.7436L10.8653 15.9028ZM10.8374 16.4523L8.98304 15.7031C9.09814 15.4182 9.25492 15.2496 9.31708 15.1879C9.38639 15.1191 9.43044 15.0927 9.41499 15.1028L10.5132 16.7743L11.6114 18.4459C11.8506 18.2887 12.4102 17.8985 12.6918 17.2016L10.8374 16.4523ZM10.5132 16.7743L9.41499 15.1028C9.37962 15.126 9.34976 15.1453 9.32496 15.1609C9.29993 15.1767 9.28225 15.1874 9.271 15.194C9.25904 15.2011 9.25909 15.2008 9.26881 15.1956C9.27406 15.1928 9.28421 15.1875 9.29856 15.1805C9.31253 15.1737 9.33458 15.1634 9.36328 15.1512L10.1447 16.9922L10.9262 18.8332C11.1863 18.7228 11.4528 18.55 11.6114 18.4459L10.5132 16.7743ZM10.1447 16.9922L9.36328 15.1512C9.62982 15.038 9.85198 15.0166 9.94247 15.0105C10.0486 15.0035 10.1236 15.0092 10.1498 15.0115C10.2 15.0159 10.198 15.02 10.1166 15.0011L9.66579 16.9497L9.21496 18.8982C9.38349 18.9372 9.58624 18.9772 9.7961 18.9958C9.91341 19.0062 10.4032 19.0552 10.9262 18.8332L10.1447 16.9922ZM9.66579 16.9497L10.1166 15.0011C9.99343 14.9726 9.81583 14.9179 9.57661 14.8213L8.82739 16.6756L8.07818 18.53C8.45708 18.6831 8.83841 18.8111 9.21496 18.8982L9.66579 16.9497ZM8.82739 16.6756L9.57661 14.8213C9.2507 14.6896 8.70284 14.4757 7.94386 14.1835L7.22515 16.0499L6.50643 17.9163C7.26566 18.2086 7.78596 18.4119 8.07818 18.53L8.82739 16.6756ZM7.22515 16.0499L7.97436 14.1955C5.93533 13.3717 4.83804 12.7592 4.40355 12.3889L3.10638 13.9112L1.80921 15.4335C2.7868 16.2665 4.43535 17.0798 6.47593 17.9042L7.22515 16.0499ZM3.10638 13.9112L4.40355 12.3889C4.12082 12.148 4.01097 11.9135 3.99894 11.5623L2.00011 11.6307L0.00128196 11.6992C0.0522057 13.1854 0.679874 14.4712 1.80921 15.4335L3.10638 13.9112ZM2.00011 11.6307L4.0001 11.6377C4.00081 11.4318 4.11466 10.7104 4.50137 9.24123L2.56724 8.73214L0.633125 8.22304C0.267137 9.61347 0.0028911 10.8245 0.000121034 11.6238L2.00011 11.6307ZM2.56724 8.73214L4.50137 9.24123C4.68482 8.54425 4.83158 8.04997 4.94236 7.73241C4.99892 7.57024 5.03197 7.49538 5.04012 7.4785C5.04413 7.47018 5.02696 7.50776 4.98622 7.5695C4.95847 7.61156 4.84328 7.78487 4.62334 7.95829L3.38501 6.38777L2.14668 4.81724C1.70652 5.1643 1.49185 5.62775 1.43775 5.73984C1.33554 5.9516 1.24526 6.18642 1.16554 6.41498C1.00372 6.87887 0.826016 7.49022 0.633125 8.22304L2.56724 8.73214ZM3.38501 6.38777L4.66864 7.92148C5.03879 7.61169 5.30654 7.1827 5.44744 6.95145C5.63521 6.64326 5.84232 6.26035 6.06506 5.82129L4.28145 4.91644L2.49784 4.0116C2.29677 4.40794 2.14257 4.68796 2.03153 4.87021C1.97592 4.96148 1.94391 5.00709 1.93361 5.02094C1.90963 5.0532 1.9676 4.96601 2.10137 4.85405L3.38501 6.38777ZM4.28145 4.91644L6.06506 5.82129C6.48871 4.98619 6.77397 4.42305 6.9198 4.1339L5.13406 3.23328L3.34832 2.33265C3.20495 2.61692 2.9218 3.17589 2.49784 4.0116L4.28145 4.91644ZM5.13406 3.23328L6.9198 4.1339C6.95956 4.05507 7.00159 4.00302 7.04585 3.96241L5.69373 2.48872L4.34161 1.01503C3.92885 1.39374 3.59776 1.83807 3.34832 2.33265L5.13406 3.23328ZM5.69373 2.48872L7.04585 3.96241C7.07349 3.93705 7.09522 3.91867 7.11105 3.90599C7.12696 3.89325 7.13514 3.88771 7.13561 3.88739C7.13617 3.88702 7.12649 3.89358 7.10673 3.90404C7.08702 3.91446 7.05409 3.93042 7.00841 3.94729L6.3154 2.0712L5.62239 0.1951C5.09451 0.390096 4.66539 0.717947 4.34161 1.01503L5.69373 2.48872ZM6.3154 2.0712L7.00841 3.94729C6.93476 3.9745 6.87783 3.98755 6.84553 3.9937C6.81278 3.99994 6.79547 4.00095 6.7976 4.00081C6.79932 4.00069 6.81398 3.99981 6.84367 4.00037C6.8731 4.00094 6.91336 4.00284 6.96564 4.00732L7.13638 2.01462L7.30712 0.0219206C6.85665 -0.0166756 6.22709 -0.0282689 5.62239 0.1951L6.3154 2.0712ZM7.13638 2.01462L6.94484 4.00543C7.22112 4.03201 7.49484 4.07871 7.76675 4.14585L8.24619 2.20416L8.72562 0.262477C8.26527 0.148808 7.79912 0.0691477 7.32792 0.0238119L7.13638 2.01462ZM8.24619 2.20416L7.76675 4.14585C8.07434 4.2218 8.77138 4.42175 9.90891 4.76531L10.4872 2.85073L11.0654 0.936143C9.94723 0.598426 9.15029 0.367335 8.72563 0.262477L8.24619 2.20416ZM10.4872 2.85073L9.90891 4.76531C10.9826 5.08958 11.9432 5.34967 12.5541 5.39512L12.7025 3.40064L12.8509 1.40615C12.8569 1.4066 12.7249 1.39101 12.3687 1.30259C12.0443 1.22206 11.6126 1.10142 11.0654 0.936143L10.4872 2.85073ZM12.7025 3.40064L12.5317 5.39334C12.6781 5.40588 12.7834 5.42408 12.8543 5.44095C12.9259 5.45795 12.9491 5.47039 12.9388 5.46545C12.9271 5.45986 12.8738 5.4324 12.8048 5.36833C12.7327 5.30139 12.6603 5.20974 12.6049 5.09673L14.4006 4.21616L16.1963 3.33559C15.4815 1.87784 13.9498 1.50018 12.8732 1.40794L12.7025 3.40064ZM14.4006 4.21616L12.6157 5.11836C12.5592 5.00664 12.5107 4.85265 12.5044 4.67126C12.4983 4.49179 12.5356 4.34744 12.5732 4.25439L14.4276 5.00361L16.282 5.75282C16.5993 4.96736 16.5838 4.10177 16.1856 3.31397L14.4006 4.21616ZM14.4276 5.00361L12.5732 4.25439C12.6114 4.16004 12.6781 4.0477 12.7815 3.94368C12.8841 3.84052 12.9888 3.77963 13.0647 3.74738L13.8462 5.58839L14.6277 7.4294C15.3781 7.11088 15.9671 6.53208 16.282 5.75282L14.4276 5.00361ZM13.8462 5.58839L13.0058 3.77353C13.2062 3.68073 13.3519 3.666 13.3639 3.66467C13.3889 3.6619 13.3688 3.6661 13.2863 3.66242C13.1187 3.65492 12.8378 3.62217 12.4162 3.54258L12.0452 5.50787L11.6742 7.47316C12.1879 7.57013 12.6749 7.63908 13.1076 7.65842C13.4581 7.6741 14.0902 7.67943 14.6866 7.40325L13.8462 5.58839ZM12.0452 5.50787L12.4162 3.54258C11.5719 3.3832 10.6689 3.15142 9.70547 2.84279L9.09529 4.74743L8.48511 6.65208C9.58438 7.00425 10.6479 7.27942 11.6742 7.47316L12.0452 5.50787ZM9.09529 4.74743L9.70547 2.84279C9.18161 2.67496 8.74969 2.54205 8.41859 2.44796C8.18589 2.38184 7.76516 2.26147 7.42017 2.23997L7.2958 4.2361L7.17144 6.23223C7.11968 6.22901 7.08086 6.22416 7.06068 6.2214C7.03901 6.21842 7.02462 6.21586 7.01961 6.21495C7.01073 6.21333 7.01723 6.21428 7.04443 6.22069C7.0991 6.23356 7.18988 6.25717 7.32525 6.29564C7.59398 6.372 7.97764 6.4895 8.48511 6.65208L9.09529 4.74743ZM19.9451 12.2588L18.4323 10.9506V10.9506L19.9451 12.2588ZM21.7757 10.2373L22.5571 12.0784L22.6337 12.0458L22.7073 12.0071L21.7757 10.2373ZM22.5627 10.3181L21.6786 12.112L21.6786 12.112L22.5627 10.3181ZM23.2327 10.9555L21.4179 11.7959L23.2327 10.9555ZM22.9316 12.128L21.237 11.0658L21.237 11.0658L22.9316 12.128ZM20.5 15.0499L19.018 13.7068L19.0093 13.7165L19.0007 13.7262L20.5 15.0499ZM18.047 17.7043L19.3887 19.1874V19.1874L18.047 17.7043ZM16.864 18.2833L16.5944 16.3015V16.3015L16.864 18.2833ZM15.934 17.6487L17.7889 16.9008L17.7889 16.9008L15.934 17.6487ZM15.5543 14.6911L13.5558 14.7704L13.5558 14.7704L15.5543 14.6911ZM15.0123 11.3875L13.159 12.1392L13.165 12.1541L13.1713 12.169L15.0123 11.3875ZM15.2459 9.36793L16.0539 11.1974L15.2459 9.36793ZM16.8738 10.0904L18.5443 8.99059L18.5443 8.99059L16.8738 10.0904ZM17.6854 12.7263L19.6829 12.6258V12.6258L17.6854 12.7263ZM17.9473 14.3205L17.1981 16.1749C18.0787 16.5307 18.8264 16.1923 19.1131 16.0312L18.1331 14.2878L17.1531 12.5443C17.291 12.4668 17.9148 12.1503 18.6965 12.4662L17.9473 14.3205ZM18.1331 14.2878L19.1131 16.0312C19.3038 15.924 19.438 15.8055 19.4587 15.7877C19.5085 15.7448 19.5503 15.7052 19.5778 15.6785C19.6344 15.6236 19.6915 15.5643 19.7421 15.5108C19.8461 15.4007 19.9786 15.2549 20.1336 15.0813C20.4465 14.7311 20.8892 14.2247 21.4579 13.567L19.9451 12.2588L18.4323 10.9506C17.8675 11.6037 17.4414 12.0909 17.1502 12.4169C17.0032 12.5815 16.8999 12.6946 16.8344 12.764C16.8001 12.8002 16.789 12.8109 16.7939 12.8062C16.7956 12.8046 16.8156 12.785 16.8479 12.7572C16.8509 12.7546 16.9717 12.6463 17.1531 12.5443L18.1331 14.2878ZM19.9451 12.2588L21.4579 13.567C22.0219 12.9149 22.4459 12.4325 22.7354 12.1128C22.8821 11.9508 22.9811 11.8452 23.0403 11.7848C23.0719 11.7526 23.0745 11.7514 23.0573 11.7669C23.0495 11.7739 23.0175 11.8027 22.9686 11.8401C22.9522 11.8526 22.7947 11.9775 22.5571 12.0784L21.7757 10.2373L20.9942 8.39633C20.7457 8.50179 20.5734 8.63622 20.5379 8.66332C20.47 8.71529 20.4148 8.76363 20.3799 8.79514C20.3082 8.85966 20.2401 8.9274 20.1845 8.98401C20.0696 9.10124 19.9289 9.25292 19.7705 9.42786C19.4497 9.78201 19.0019 10.2919 18.4323 10.9506L19.9451 12.2588ZM21.7757 10.2373L22.7073 12.0071C22.4056 12.1659 22.115 12.1878 21.9191 12.1678C21.7442 12.1498 21.6567 12.1012 21.6786 12.112L22.5627 10.3181L23.4469 8.52411C22.8934 8.25132 21.8821 7.92112 20.844 8.46759L21.7757 10.2373ZM22.5627 10.3181L21.6786 12.112C21.6894 12.1174 21.6519 12.1006 21.5946 12.0461C21.5338 11.9883 21.4679 11.9039 21.4179 11.7959L23.2327 10.9555L25.0476 10.1151C24.6909 9.34472 24.0819 8.83706 23.4469 8.5241L22.5627 10.3181ZM23.2327 10.9555L21.4179 11.7959C21.2233 11.3756 21.2912 11.0331 21.3125 10.9501C21.3326 10.8717 21.3392 10.9027 21.237 11.0658L22.9316 12.128L24.6262 13.1902C24.8476 12.837 25.0662 12.4144 25.1867 11.9452C25.3084 11.4713 25.3651 10.8007 25.0476 10.1151L23.2327 10.9555ZM22.9316 12.128L21.237 11.0658C21.0241 11.4053 20.3405 12.2475 19.018 13.7068L20.5 15.0499L21.9819 16.393C23.2542 14.9891 24.1917 13.8834 24.6262 13.1902L22.9316 12.128ZM20.5 15.0499L19.0007 13.7262C17.701 15.1983 16.966 15.9852 16.7053 16.2211L18.047 17.7043L19.3887 19.1874C19.8532 18.7672 20.7536 17.7845 21.9993 16.3736L20.5 15.0499ZM18.047 17.7043L16.7053 16.2211C16.6472 16.2737 16.6113 16.2932 16.6001 16.2986C16.5941 16.3016 16.5918 16.3022 16.5926 16.3019C16.5928 16.3019 16.5932 16.3017 16.5938 16.3016C16.5943 16.3015 16.5946 16.3015 16.5944 16.3015L16.864 18.2833L17.1335 20.265C18.0122 20.1455 18.7696 19.7475 19.3887 19.1874L18.047 17.7043ZM16.864 18.2833L16.5944 16.3015C16.7954 16.2742 17.1259 16.3023 17.4392 16.516C17.5757 16.6092 17.6652 16.7092 17.7183 16.7821C17.7696 16.8526 17.7884 16.8997 17.7889 16.9008L15.934 17.6487L14.0791 18.3965C14.2692 18.8682 14.6002 19.4213 15.1846 19.8201C15.8079 20.2454 16.5065 20.3503 17.1335 20.265L16.864 18.2833ZM15.934 17.6487L17.7889 16.9008C17.7899 16.9033 17.7348 16.742 17.6773 16.2938C17.6242 15.8801 17.581 15.3243 17.5527 14.6117L15.5543 14.6911L13.5558 14.7704C13.5867 15.5485 13.6364 16.2311 13.7099 16.8032C13.7789 17.3409 13.8841 17.913 14.079 18.3965L15.934 17.6487ZM15.5543 14.6911L17.5527 14.6117C17.4911 13.0611 17.3015 11.6619 16.8533 10.606L15.0123 11.3875L13.1713 12.169C13.3273 12.5364 13.499 13.3395 13.5558 14.7704L15.5543 14.6911ZM15.0123 11.3875L16.8657 10.6358C16.7886 10.4458 16.7533 10.3195 16.7387 10.2486C16.7233 10.174 16.7393 10.2012 16.7279 10.2997C16.7151 10.4101 16.6675 10.6049 16.5204 10.8095C16.3707 11.0177 16.1884 11.138 16.0539 11.1974L15.2459 9.36793L14.4378 7.53844C13.459 7.97074 12.8706 8.83507 12.7544 9.84021C12.6583 10.6708 12.8927 11.4827 13.159 12.1392L15.0123 11.3875ZM15.2459 9.36793L16.0539 11.1974C15.9947 11.2236 15.8794 11.2618 15.7211 11.2648C15.5582 11.268 15.4078 11.2326 15.2879 11.1795C15.0748 11.0849 15.0702 10.988 15.2033 11.1901L16.8738 10.0904L18.5443 8.99059C18.1872 8.44824 17.6663 7.85873 16.9105 7.52331C16.071 7.15076 15.196 7.20358 14.4378 7.53844L15.2459 9.36793ZM16.8738 10.0904L15.2033 11.1901C15.4715 11.5974 15.6524 12.1203 15.688 12.8269L17.6854 12.7263L19.6829 12.6258C19.6165 11.3067 19.2564 10.0723 18.5443 8.99059L16.8738 10.0904ZM17.6854 12.7263L15.688 12.8269C15.7145 13.3552 15.7534 13.8305 15.8156 14.2087C15.845 14.3882 15.893 14.6314 15.9813 14.8749C16.0251 14.9955 16.1045 15.1893 16.2431 15.3954C16.3685 15.5819 16.6621 15.9584 17.1981 16.1749L17.9473 14.3205L18.6965 12.4662C19.2016 12.6702 19.4654 13.0192 19.5622 13.1631C19.6722 13.3266 19.7241 13.4628 19.7415 13.5107C19.7771 13.6089 19.7768 13.6466 19.7627 13.5603C19.7375 13.4072 19.7073 13.1104 19.6829 12.6258L17.6854 12.7263ZM28.0977 16.3939L29.5025 14.9703L29.4932 14.9613L28.0977 16.3939ZM26.4027 15.7307L25.5185 13.9368L25.4641 13.9635L25.4115 13.9936L26.4027 15.7307ZM26.2785 16.1982L27.4967 14.612L27.4967 14.612L26.2785 16.1982ZM27.6575 16.9495L28.5325 15.151L28.5284 15.149L27.6575 16.9495ZM28.6596 17.1386L26.6608 17.2071L26.6643 17.3081L26.6779 17.4082L28.6596 17.1386ZM30.2965 19.5472L29.685 17.643L29.669 17.6481L29.6532 17.6535L30.2965 19.5472ZM28.896 19.6501L29.3116 17.6937V17.6937L28.896 19.6501ZM26.5256 18.8434L27.2544 16.9809L26.5256 18.8434ZM24.616 17.964L23.1969 19.3733L23.1969 19.3733L24.616 17.964ZM24.3714 17.822L22.517 17.0728L22.3771 17.4192L22.3716 17.7927L24.3714 17.822ZM24.3616 18.4868L22.3619 18.4575L22.3615 18.4805L22.3617 18.5035L24.3616 18.4868ZM24.9502 20.1266L23.8424 21.7918L23.8661 21.8075L23.8901 21.8226L24.9502 20.1266ZM28.882 20.4857L29.2766 18.525L29.2648 18.5226L29.253 18.5204L28.882 20.4857ZM29.4746 20.9408L27.8359 22.0873L27.8485 22.1054L27.8616 22.1232L29.4746 20.9408ZM29.594 21.8734L31.497 22.4886L31.497 22.4886L29.594 21.8734ZM28.9676 22.5695L29.6396 24.4532L29.6396 24.4532L28.9676 22.5695ZM27.2065 22.7639L27.2282 24.7638L27.2423 24.7637L27.2564 24.7633L27.2065 22.7639ZM25.4241 22.6909L25.7794 20.7227L25.7404 20.7157L25.7012 20.7102L25.4241 22.6909ZM24.0925 22.196L24.9963 20.4119V20.4119L24.0925 22.196ZM22.7411 21.0029L24.4065 19.8955V19.8955L22.7411 21.0029ZM22.1387 19.077L20.145 19.2362V19.2362L22.1387 19.077ZM22.3915 16.8495L20.5116 16.167L20.4994 16.2004L20.4885 16.2343L22.3915 16.8495ZM23.3964 15.1632L21.9704 13.7608L21.9704 13.7608L23.3964 15.1632ZM25.031 13.9469L26.0296 15.6798V15.6798L25.031 13.9469ZM26.6413 13.3249L26.7707 15.3207V15.3207L26.6413 13.3249ZM28.2479 13.7798L29.1273 11.9835V11.9835L28.2479 13.7798ZM29.7855 14.8325L31.2849 13.5089L31.2618 13.4828L31.2379 13.4575L29.7855 14.8325ZM28.0977 16.3939L29.4932 14.9613C29.058 14.5373 28.5238 14.1153 27.8919 13.868C27.2063 13.5997 26.3523 13.5257 25.5185 13.9368L26.4027 15.7307L27.287 17.5246C27.1206 17.6066 26.9372 17.6476 26.7616 17.6476C26.595 17.6477 26.4808 17.6112 26.4344 17.593C26.3905 17.5758 26.3955 17.5708 26.451 17.6101C26.505 17.6485 26.5888 17.7162 26.7021 17.8265L28.0977 16.3939ZM26.4027 15.7307L25.4115 13.9936C25.2112 14.1079 24.4722 14.5364 24.2284 15.4541C23.8968 16.7028 24.7186 17.5219 25.0603 17.7844L26.2785 16.1982L27.4967 14.612C27.5867 14.6811 27.7965 14.8591 27.9585 15.1782C28.1447 15.545 28.2195 16.0098 28.0944 16.4809C27.983 16.9002 27.7571 17.1606 27.6383 17.2772C27.5156 17.3976 27.4147 17.4559 27.3939 17.4678L26.4027 15.7307ZM26.2785 16.1982L25.0603 17.7844C25.4505 18.084 26.1062 18.4208 26.7866 18.7499L27.6575 16.9495L28.5284 15.149C28.1831 14.982 27.9192 14.8475 27.7283 14.7435C27.5131 14.6263 27.4645 14.5873 27.4967 14.612L26.2785 16.1982ZM27.6575 16.9495L26.7825 18.7479C27.14 18.9218 27.607 19.1309 28.0598 19.2164C28.2129 19.2453 28.8369 19.3653 29.4957 19.0415C29.9041 18.8407 30.279 18.4893 30.4915 17.9941C30.6857 17.5412 30.6764 17.1266 30.6414 16.8691L28.6596 17.1386L26.6779 17.4082C26.6501 17.2039 26.6366 16.8339 26.8155 16.4171C27.0125 15.9579 27.3606 15.6339 27.7309 15.4518C28.0586 15.2907 28.3469 15.2659 28.49 15.2624C28.6436 15.2587 28.7552 15.277 28.8018 15.2858C28.9206 15.3082 28.8721 15.3163 28.5325 15.151L27.6575 16.9495ZM28.6596 17.1386L30.6584 17.0702C30.6431 16.622 30.4902 16.2809 30.4069 16.1161C30.3109 15.926 30.2011 15.7672 30.1123 15.6494C29.9343 15.4135 29.7174 15.1824 29.5025 14.9703L28.0977 16.3939L26.6929 17.8175C26.7657 17.8894 26.8207 17.9468 26.8608 17.9909C26.8805 18.0126 26.8951 18.0294 26.9053 18.0416C26.9157 18.0539 26.9198 18.0594 26.9193 18.0587C26.9189 18.0582 26.9109 18.0476 26.898 18.0276C26.8855 18.0084 26.8631 17.9721 26.837 17.9205C26.8117 17.8704 26.7744 17.7891 26.7406 17.681C26.7074 17.5751 26.6678 17.4121 26.6608 17.2071L28.6596 17.1386ZM31.2125 18.8819L29.3581 18.1327C29.4703 17.855 29.6412 17.7019 29.7219 17.6433C29.7922 17.5923 29.8018 17.6055 29.685 17.643L30.2965 19.5472L30.9081 21.4514C31.5883 21.233 32.614 20.7519 33.0668 19.6311L31.2125 18.8819ZM30.2965 19.5472L29.6532 17.6535C29.4725 17.7149 29.3723 17.7066 29.3116 17.6937L28.896 19.6501L28.4805 21.6064C29.3204 21.7848 30.1538 21.708 30.9399 21.4409L30.2965 19.5472ZM28.896 19.6501L29.3116 17.6937C29.0429 17.6367 28.3953 17.4273 27.2544 16.9809L26.5256 18.8434L25.7968 20.7059C26.9159 21.1438 27.8486 21.4722 28.4805 21.6064L28.896 19.6501ZM26.5256 18.8434L27.2544 16.9809C26.7037 16.7654 26.3036 16.5979 26.0373 16.4753C25.9027 16.4133 25.8271 16.3741 25.7941 16.3556C25.7781 16.3466 25.7895 16.3522 25.8181 16.3716C25.8366 16.3842 25.9267 16.4455 26.0351 16.5547L24.616 17.964L23.1969 19.3733C23.4441 19.6222 23.7244 19.7809 23.8376 19.8444C23.9995 19.9352 24.1806 20.024 24.3642 20.1085C24.7344 20.279 25.2176 20.4792 25.7968 20.7059L26.5256 18.8434ZM24.616 17.964L26.0351 16.5547C25.9482 16.4672 25.736 16.2558 25.4514 16.0906C25.3446 16.0286 24.9328 15.7914 24.3561 15.8035C24.0168 15.8106 23.6038 15.906 23.2195 16.1803C22.8419 16.45 22.6295 16.7943 22.517 17.0728L24.3714 17.822L26.2257 18.5712C26.1182 18.8374 25.9128 19.1723 25.544 19.4356C25.1686 19.7037 24.7663 19.7958 24.4397 19.8026C23.8884 19.8142 23.5096 19.5885 23.4436 19.5502C23.2406 19.4324 23.1407 19.3167 23.1969 19.3733L24.616 17.964ZM24.3714 17.822L22.3716 17.7927L22.3619 18.4575L24.3616 18.4868L26.3614 18.516L26.3712 17.8513L24.3714 17.822ZM24.3616 18.4868L22.3617 18.5035C22.3699 19.4831 22.5796 20.9518 23.8424 21.7918L24.9502 20.1266L26.058 18.4614C26.174 18.5387 26.2592 18.6278 26.3165 18.7068C26.3713 18.7826 26.3925 18.8376 26.3965 18.8488C26.4002 18.8592 26.391 18.8367 26.3811 18.7694C26.3714 18.7027 26.3627 18.6048 26.3616 18.47L24.3616 18.4868ZM24.9502 20.1266L23.8901 21.8226C24.8241 22.4064 26.0644 22.482 27.1004 22.4603L27.0585 20.4608L27.0167 18.4612C26.5821 18.4703 26.2793 18.4489 26.0831 18.4178C25.8673 18.3836 25.8879 18.3542 26.0103 18.4307L24.9502 20.1266ZM27.0585 20.4608L27.1004 22.4603C27.598 22.4499 27.9778 22.4472 28.2485 22.4509C28.3843 22.4527 28.4796 22.456 28.5413 22.4596C28.6226 22.4642 28.5927 22.4664 28.511 22.451L28.882 20.4857L29.253 18.5204C28.9543 18.464 28.5784 18.455 28.3031 18.4513C27.966 18.4466 27.5343 18.4504 27.0167 18.4612L27.0585 20.4608ZM28.882 20.4857L28.4874 22.4463C28.004 22.349 27.8124 22.0538 27.8359 22.0873L29.4746 20.9408L31.1134 19.7943C30.7722 19.3066 30.1856 18.7079 29.2766 18.525L28.882 20.4857ZM29.4746 20.9408L27.8616 22.1232C27.7692 21.9972 27.692 21.8247 27.6667 21.627C27.6426 21.4391 27.6753 21.3066 27.6909 21.2582L29.594 21.8734L31.497 22.4886C31.7786 21.6175 31.718 20.6183 31.0877 19.7585L29.4746 20.9408ZM29.594 21.8734L27.6909 21.2582C27.7029 21.2212 27.7471 21.107 27.8644 20.9767C27.9886 20.8387 28.1435 20.74 28.2956 20.6858L28.9676 22.5695L29.6396 24.4532C30.6285 24.1004 31.2265 23.3253 31.497 22.4886L29.594 21.8734ZM28.9676 22.5695L28.2956 20.6858C28.3651 20.661 28.3259 20.684 28.081 20.7111C27.8635 20.7351 27.5597 20.7545 27.1567 20.7645L27.2065 22.7639L27.2564 24.7633C28.0952 24.7424 28.9929 24.6839 29.6396 24.4532L28.9676 22.5695ZM27.2065 22.7639L27.1849 20.764C26.7721 20.7685 26.4438 20.7647 26.1929 20.7544C26.068 20.7493 25.97 20.7429 25.8957 20.7362C25.859 20.7329 25.8308 20.7297 25.8101 20.7271C25.8 20.7258 25.7923 20.7247 25.7869 20.7239C25.7816 20.7231 25.7791 20.7227 25.7794 20.7227L25.4241 22.6909L25.0689 24.6591C25.6024 24.7554 26.3762 24.773 27.2282 24.7638L27.2065 22.7639ZM25.4241 22.6909L25.7012 20.7102C25.7282 20.714 25.6825 20.7101 25.5429 20.6582C25.4102 20.6089 25.2299 20.5302 24.9963 20.4119L24.0925 22.196L23.1888 23.9802C23.8019 24.2908 24.4849 24.579 25.147 24.6716L25.4241 22.6909ZM24.0925 22.196L24.9963 20.4119C24.7354 20.2797 24.5504 20.1119 24.4065 19.8955L22.7411 21.0029L21.0756 22.1103C21.6116 22.9163 22.3275 23.5439 23.1888 23.9802L24.0925 22.196ZM22.7411 21.0029L24.4065 19.8955C24.298 19.7323 24.1739 19.4391 24.1323 18.9178L22.1387 19.077L20.145 19.2362C20.2268 20.2603 20.5043 21.251 21.0756 22.1103L22.7411 21.0029ZM22.1387 19.077L24.1323 18.9178C24.0908 18.3972 24.1479 17.9184 24.2945 17.4647L22.3915 16.8495L20.4885 16.2343C20.1746 17.2052 20.0632 18.2114 20.145 19.2362L22.1387 19.077ZM22.3915 16.8495L24.2714 17.5321C24.4534 17.0309 24.6542 16.7366 24.8224 16.5655L23.3964 15.1632L21.9704 13.7608C21.3087 14.4337 20.8396 15.2635 20.5116 16.167L22.3915 16.8495ZM23.3964 15.1632L24.8224 16.5655C25.0778 16.3058 25.4652 16.005 26.0296 15.6798L25.031 13.9469L24.0325 12.2141C23.2472 12.6666 22.5449 13.1766 21.9704 13.7608L23.3964 15.1632ZM25.031 13.9469L26.0296 15.6798C26.3068 15.5201 26.5147 15.4217 26.6604 15.3654C26.8152 15.3056 26.8416 15.3161 26.7707 15.3207L26.6413 13.3249L26.5119 11.3291C25.6356 11.3859 24.767 11.7908 24.0325 12.2141L25.031 13.9469ZM26.6413 13.3249L26.7707 15.3207C26.6729 15.327 26.6688 15.3072 26.7971 15.3435C26.9182 15.3778 27.1056 15.4474 27.3684 15.5761L28.2479 13.7798L29.1273 11.9835C28.3719 11.6137 27.4468 11.2684 26.5119 11.3291L26.6413 13.3249ZM28.2479 13.7798L27.3684 15.5761C27.9158 15.8441 28.2016 16.0685 28.3331 16.2075L29.7855 14.8325L31.2379 13.4575C30.6639 12.8512 29.9246 12.3739 29.1273 11.9835L28.2479 13.7798ZM29.7855 14.8325L28.2861 16.156C28.7252 16.6534 29.0219 17.1586 29.2062 17.673L31.089 16.9985L32.9718 16.324C32.6019 15.2915 32.0297 14.3526 31.2849 13.5089L29.7855 14.8325ZM31.089 16.9985L29.2062 17.673C29.3 17.9349 29.3266 18.0986 29.332 18.1803C29.337 18.256 29.3216 18.223 29.3581 18.1327L31.2125 18.8819L33.0668 19.6311C33.5265 18.4935 33.3231 17.3045 32.9718 16.324L31.089 16.9985ZM37.2409 25.3081L39.2288 25.0886V25.0886L37.2409 25.3081ZM37.4409 23.3181L35.4841 22.9044L35.4796 22.9257L35.4756 22.9471L37.4409 23.3181ZM37.5219 20.2878L39.101 19.0604L39.0925 19.0495L37.5219 20.2878ZM37.2548 20.2015L36.7867 18.2571L36.7337 18.2698L36.6815 18.2854L37.2548 20.2015ZM34.8189 23.2942L36.5094 24.363L36.5138 24.356L34.8189 23.2942ZM33.6333 24.6271L34.7068 26.3146L34.7207 26.3057L34.7345 26.2966L33.6333 24.6271ZM32.6561 24.75L31.5872 26.4404L31.5937 26.4445L31.6002 26.4485L32.6561 24.75ZM32.0842 23.6561L30.097 23.4305V23.4305L32.0842 23.6561ZM33.1996 17.9591L31.2002 18.0069L31.2004 18.0192L31.2009 18.0315L33.1996 17.9591ZM34.1567 16.124L34.2981 18.119L34.3235 18.1172L34.3488 18.1148L34.1567 16.124ZM35.4478 17.5732L37.4317 17.3194L37.4305 17.3099L37.4292 17.3005L35.4478 17.5732ZM35.5672 18.5058L33.5833 18.7596L33.9295 21.4652L36.4058 20.3215L35.5672 18.5058ZM36.3893 18.1261L37.2279 19.9418L37.2528 19.9303L37.2775 19.9181L36.3893 18.1261ZM37.757 17.8375L37.8463 15.8395L37.8463 15.8395L37.757 17.8375ZM38.9292 18.2463L37.6484 19.7825L37.6604 19.7924L37.6725 19.8022L38.9292 18.2463ZM39.8957 20.1252L37.9244 20.463L37.9258 20.4711L37.9273 20.4792L39.8957 20.1252ZM39.7661 23.2222L41.7299 23.6014V23.6014L39.7661 23.2222ZM38.9886 25.7338L40.6546 26.8404L40.6683 26.8198L40.6815 26.7989L38.9886 25.7338ZM37.8064 26.0974L38.5556 24.243C38.6996 24.3012 38.8895 24.4235 39.0405 24.6341C39.185 24.8359 39.2208 25.0167 39.2288 25.0886L37.2409 25.3081L35.2529 25.5276C35.3041 25.9908 35.4558 26.4989 35.7888 26.9637C36.1283 27.4375 36.5794 27.7587 37.0571 27.9518L37.8064 26.0974ZM37.2409 25.3081L39.2288 25.0886C39.2295 25.0953 39.2209 24.991 39.2484 24.7171C39.2742 24.4612 39.3245 24.1219 39.4062 23.6891L37.4409 23.3181L35.4756 22.9471C35.2996 23.8793 35.1735 24.808 35.2529 25.5276L37.2409 25.3081ZM37.4409 23.3181L39.3976 23.7319C39.5823 22.8586 39.7028 22.0612 39.721 21.3819C39.7301 21.0412 39.7154 20.6739 39.646 20.3125C39.5795 19.9657 39.4383 19.4944 39.101 19.0604L37.5219 20.2878L35.9429 21.5153C35.8432 21.387 35.788 21.2721 35.7588 21.1989C35.7297 21.1258 35.7198 21.0772 35.7177 21.0665C35.7149 21.0519 35.7268 21.1106 35.7224 21.2749C35.7135 21.6058 35.6469 22.1348 35.4841 22.9044L37.4409 23.3181ZM37.5219 20.2878L39.0925 19.0495C38.8513 18.7436 38.4962 18.4537 38.0204 18.2999C37.5541 18.1491 37.1197 18.1769 36.7867 18.2571L37.2548 20.2015L37.723 22.1459C37.5015 22.1993 37.1674 22.228 36.7901 22.106C36.4034 21.981 36.1261 21.7476 35.9514 21.5262L37.5219 20.2878ZM37.2548 20.2015L36.6815 18.2854C36.1106 18.4563 35.7 18.82 35.4992 19.0097C35.2475 19.2474 35.0019 19.532 34.768 19.8289C34.2968 20.4272 33.7461 21.2394 33.1241 22.2324L34.8189 23.2942L36.5138 24.356C37.1067 23.4095 37.5695 22.7366 37.9103 22.304C38.0824 22.0855 38.1924 21.9681 38.2459 21.9175C38.3503 21.8189 38.1947 22.0079 37.8282 22.1175L37.2548 20.2015ZM34.8189 23.2942L33.1285 22.2253C32.8026 22.7407 32.589 22.92 32.5321 22.9575L33.6333 24.6271L34.7345 26.2966C35.4618 25.8169 36.0386 25.1076 36.5094 24.363L34.8189 23.2942ZM33.6333 24.6271L32.5598 22.9396C32.5227 22.9632 32.6263 22.8861 32.8491 22.8581C33.1144 22.8248 33.4323 22.8775 33.712 23.0514L32.6561 24.75L31.6002 26.4485C32.807 27.1987 34.0192 26.7519 34.7068 26.3146L33.6333 24.6271ZM32.6561 24.75L33.7249 23.0595C33.5945 22.9771 33.4816 22.9068 33.3915 22.8524C33.3753 22.8427 33.1724 22.7152 32.9717 22.6341L32.2225 24.4885L31.4733 26.3429C31.4275 26.3244 31.3921 26.308 31.3723 26.2986C31.3508 26.2884 31.3341 26.2799 31.3237 26.2745C31.3036 26.2641 31.2911 26.2571 31.2901 26.2565C31.2878 26.2552 31.2979 26.2609 31.3259 26.2778C31.3803 26.3106 31.4657 26.3635 31.5872 26.4404L32.6561 24.75ZM32.2225 24.4885L32.9717 22.6341C33.4327 22.8204 33.7143 23.1457 33.8633 23.4042C33.999 23.6397 34.0378 23.8369 34.0496 23.9078C34.0717 24.0407 34.0508 24.0634 34.0715 23.8817L32.0842 23.6561L30.097 23.4305C30.0614 23.7438 30.0355 24.1527 30.1037 24.5631C30.1541 24.867 30.3803 25.9013 31.4733 26.3429L32.2225 24.4885ZM32.0842 23.6561L34.0715 23.8817C34.108 23.5601 34.2725 22.7986 34.6325 21.476L32.7027 20.9508L30.7729 20.4256C30.4206 21.72 30.1729 22.7621 30.097 23.4305L32.0842 23.6561ZM32.7027 20.9508L34.6325 21.476C35.0005 20.1238 35.2345 18.8864 35.1983 17.8866L33.1996 17.9591L31.2009 18.0315C31.2144 18.4036 31.1171 19.1607 30.7729 20.4256L32.7027 20.9508ZM33.1996 17.9591L35.199 17.9113C35.1941 17.7063 35.206 17.5757 35.2176 17.504C35.2298 17.4292 35.2354 17.4581 35.1911 17.5431C35.1413 17.6385 35.0323 17.7951 34.834 17.9277C34.6328 18.0623 34.4335 18.1094 34.2981 18.119L34.1567 16.124L34.0153 14.129C32.9619 14.2037 32.1123 14.7963 31.6445 15.6933C31.2543 16.4415 31.183 17.2893 31.2002 18.0069L33.1996 17.9591ZM34.1567 16.124L34.3488 18.1148C34.287 18.1207 34.1446 18.1224 33.9636 18.0572C33.7749 17.9893 33.6253 17.8774 33.5249 17.7648C33.4336 17.6623 33.4096 17.5898 33.4157 17.6061C33.422 17.6228 33.4458 17.6951 33.4665 17.8459L35.4478 17.5732L37.4292 17.3005C37.3342 16.6101 37.1076 15.773 36.5115 15.1039C35.8184 14.326 34.8741 14.0455 33.9646 14.1333L34.1567 16.124ZM35.4478 17.5732L33.464 17.827L33.5833 18.7596L35.5672 18.5058L37.551 18.252L37.4317 17.3194L35.4478 17.5732ZM35.5672 18.5058L36.4058 20.3215L37.2279 19.9418L36.3893 18.1261L35.5507 16.3104L34.7286 16.6901L35.5672 18.5058ZM36.3893 18.1261L37.2775 19.9181C37.4065 19.8541 37.5261 19.8291 37.6677 19.8355L37.757 17.8375L37.8463 15.8395C37.0273 15.8028 36.2352 15.9703 35.501 16.3342L36.3893 18.1261ZM37.757 17.8375L37.6677 19.8355C37.7443 19.8389 37.7665 19.8494 37.7515 19.8442C37.7439 19.8415 37.729 19.8356 37.7094 19.8246C37.6897 19.8136 37.6688 19.7994 37.6484 19.7825L38.9292 18.2463L40.2099 16.7102C39.5026 16.1205 38.6625 15.8759 37.8463 15.8395L37.757 17.8375ZM38.9292 18.2463L37.6725 19.8022C37.679 19.8075 37.8324 19.9256 37.9244 20.463L39.8957 20.1252L41.867 19.7874C41.6678 18.6253 41.1768 17.4908 40.1859 16.6905L38.9292 18.2463ZM39.8957 20.1252L37.9273 20.4792C38.0189 20.9885 38.0126 21.7545 37.8024 22.843L39.7661 23.2222L41.7299 23.6014C41.9936 22.2354 42.0738 20.9368 41.8641 19.7712L39.8957 20.1252ZM39.7661 23.2222L37.8024 22.843C37.6925 23.4124 37.5845 23.8526 37.4835 24.1791C37.4333 24.341 37.3888 24.4623 37.3521 24.5496C37.3143 24.6394 37.2932 24.6729 37.2958 24.6688L38.9886 25.7338L40.6815 26.7989C41.1823 26.0029 41.4928 24.8289 41.7299 23.6014L39.7661 23.2222ZM38.9886 25.7338L37.3226 24.6273C37.3567 24.576 37.5267 24.3549 37.8849 24.2447C38.2418 24.1349 38.5036 24.2221 38.5556 24.243L37.8064 26.0974L37.0571 27.9518C37.6036 28.1726 38.3097 28.299 39.0607 28.068C39.813 27.8366 40.3269 27.3339 40.6546 26.8404L38.9886 25.7338ZM45.7558 18.1787L44.8676 16.3868L44.8676 16.3868L45.7558 18.1787ZM47.3277 18.9864L49.3254 18.8895L49.3254 18.8895L47.3277 18.9864ZM46.917 20.6971L48.7713 21.4463L48.7775 21.4311L48.7834 21.4158L46.917 20.6971ZM46.385 22.0137L44.5307 21.2645L43.7815 23.1188L45.6358 23.868L46.385 22.0137ZM48.5389 23.1428L46.8869 24.2701L46.8869 24.2701L48.5389 23.1428ZM48.5395 24.049L46.7111 23.2384L46.7111 23.2384L48.5395 24.049ZM46.6775 24.4399L45.8881 26.2775V26.2775L46.6775 24.4399ZM45.6757 24.143L46.4572 25.984L45.6757 24.143ZM45.0067 26.4396L46.9558 26.8878V26.8878L45.0067 26.4396ZM44.6119 28.9117L46.4093 28.0346V28.0346L44.6119 28.9117ZM45.5477 28.9447L46.0426 30.8825L46.0712 30.8752L46.0996 30.867L45.5477 28.9447ZM47.2359 29.4111L45.3831 30.1641L45.3889 30.1784L45.3949 30.1925L47.2359 29.4111ZM47.1619 30.395L45.4321 29.3911L47.1619 30.395ZM46.231 31.0974L46.8377 33.0032L46.8473 33.0001L46.8569 32.997L46.231 31.0974ZM42.5814 29.666L44.4863 29.0564L44.4756 29.023L44.4637 28.9899L42.5814 29.666ZM42.4576 27.8904L44.443 28.1317V28.1317L42.4576 27.8904ZM42.9865 25.2999L41.0585 24.7681L41.0552 24.7803L41.052 24.7925L42.9865 25.2999ZM43.3377 23.6298L41.4967 24.4113L41.4967 24.4113L43.3377 23.6298ZM42.1517 22.9349L40.6523 24.2585L40.7073 24.3208L40.7674 24.3784L42.1517 22.9349ZM41.9121 22.4067L39.9596 22.8399L39.9662 22.8696L39.9737 22.8991L41.9121 22.4067ZM44.1823 21.059L45.8207 22.206C45.9981 21.9525 46.1499 21.6206 46.2453 21.4081C46.3681 21.1345 46.5152 20.7839 46.6841 20.3657L44.8298 19.6165L42.9754 18.8673C42.8147 19.2651 42.6891 19.5628 42.5961 19.77C42.5494 19.8741 42.5167 19.9422 42.4965 19.982C42.4668 20.0406 42.4856 19.9952 42.5439 19.912L44.1823 21.059ZM44.8298 19.6165L46.6841 20.3657C46.7519 20.198 46.8131 20.0612 46.867 19.9519C46.9215 19.8413 46.9632 19.7696 46.99 19.7281C47.0185 19.6838 47.017 19.6941 46.9796 19.7331C46.9453 19.7689 46.8367 19.8752 46.644 19.9707L45.7558 18.1787L44.8676 16.3868C44.2363 16.6997 43.8458 17.2226 43.6271 17.5622C43.3786 17.9479 43.1649 18.3984 42.9754 18.8673L44.8298 19.6165ZM45.7558 18.1787L46.644 19.9707C46.4978 20.0432 46.3391 20.0759 46.1966 20.0744C46.1309 20.0736 46.0795 20.0658 46.0451 20.0582C46.0281 20.0545 46.0153 20.0509 46.0069 20.0482C46.0027 20.0469 45.9996 20.0458 45.9975 20.0451C45.9965 20.0447 45.9957 20.0444 45.9952 20.0442C45.995 20.0441 45.9948 20.0441 45.9947 20.044C45.9946 20.044 45.9945 20.044 45.9945 20.044C45.9945 20.044 45.9945 20.044 45.9945 20.0439C45.9947 20.044 45.9943 20.0439 45.9945 20.0439C45.9947 20.044 45.9943 20.0439 45.9945 20.0439L46.7437 18.1896L47.4929 16.3352C46.7326 16.028 45.7886 15.9302 44.8676 16.3868L45.7558 18.1787ZM46.7437 18.1896L45.9945 20.0439C45.9094 20.0096 45.7203 19.9093 45.5548 19.6835C45.3851 19.452 45.3367 19.2203 45.3301 19.0832L47.3277 18.9864L49.3254 18.8895C49.3002 18.3711 49.1453 17.8159 48.7809 17.3188C48.4207 16.8274 47.9489 16.5194 47.4929 16.3352L46.7437 18.1896ZM47.3277 18.9864L45.3301 19.0832C45.3266 19.0117 45.3393 19.045 45.2942 19.2331C45.2524 19.4071 45.1762 19.652 45.0506 19.9784L46.917 20.6971L48.7834 21.4158C49.0879 20.6251 49.3656 19.7185 49.3254 18.8895L47.3277 18.9864ZM46.917 20.6971L45.0626 19.9479L44.5307 21.2645L46.385 22.0137L48.2394 22.7629L48.7713 21.4463L46.917 20.6971ZM46.385 22.0137L45.6358 23.868L46.6928 24.2951L47.442 22.4407L48.1912 20.5864L47.1342 20.1593L46.385 22.0137ZM47.442 22.4407L46.6928 24.2951C46.7955 24.3366 46.8774 24.3736 46.9412 24.4053C47.0056 24.4372 47.0449 24.4604 47.0646 24.4731C47.0853 24.4863 47.0749 24.4818 47.0459 24.4558C47.0175 24.4305 46.9554 24.3705 46.8869 24.2701L48.5389 23.1428L50.1909 22.0154C49.666 21.2463 48.7956 20.8305 48.1912 20.5864L47.442 22.4407ZM48.5389 23.1428L46.8869 24.2701C46.7307 24.0411 46.6611 23.7799 46.661 23.5493C46.6609 23.4455 46.6748 23.3655 46.687 23.3151C46.6991 23.2652 46.7109 23.2389 46.7111 23.2384L48.5395 24.049L50.3679 24.8595C50.6903 24.1322 50.8861 23.0341 50.1909 22.0154L48.5389 23.1428ZM48.5395 24.049L46.7111 23.2384C46.696 23.2724 46.7209 23.2011 46.8226 23.096C46.9363 22.9784 47.1285 22.8385 47.3963 22.7674L47.9096 24.7004L48.4228 26.6334C49.5122 26.3442 50.086 25.4954 50.3679 24.8595L48.5395 24.049ZM47.9096 24.7004L47.3963 22.7674C47.5572 22.7247 47.6809 22.7217 47.7427 22.7234C47.8056 22.7251 47.8351 22.7326 47.822 22.7299C47.8105 22.7274 47.7748 22.7189 47.7113 22.6974C47.6486 22.6763 47.5677 22.6456 47.4668 22.6022L46.6775 24.4399L45.8881 26.2775C46.241 26.4291 46.6162 26.5634 46.9945 26.6433C47.3482 26.7181 47.8661 26.7813 48.4228 26.6334L47.9096 24.7004ZM46.6775 24.4399L47.4668 22.6022C47.1582 22.4697 46.8505 22.3489 46.5725 22.2665C46.4368 22.2263 46.2515 22.178 46.045 22.1521C45.9152 22.1359 45.4291 22.075 44.8943 22.302L45.6757 24.143L46.4572 25.984C46.1843 26.0999 45.9507 26.1241 45.8296 26.1304C45.6987 26.1373 45.5993 26.1276 45.5489 26.1213C45.4519 26.1091 45.4048 26.0924 45.436 26.1016C45.4919 26.1182 45.633 26.168 45.8881 26.2775L46.6775 24.4399ZM45.6757 24.143L44.8943 22.302C44.4996 22.4695 44.259 22.7192 44.1575 22.8338C44.0392 22.9674 43.9594 23.0918 43.9132 23.1693C43.8209 23.3242 43.758 23.4705 43.721 23.5622C43.6424 23.7566 43.5721 23.9784 43.5102 24.1909C43.3823 24.6299 43.2308 25.2378 43.0575 25.9914L45.0067 26.4396L46.9558 26.8878C47.1244 26.1546 47.2554 25.6362 47.3505 25.3097C47.3736 25.2306 47.3925 25.1696 47.4075 25.1243C47.4231 25.0771 47.4305 25.0586 47.4297 25.0606C47.429 25.0624 47.4234 25.0761 47.4129 25.0985C47.4031 25.1191 47.3821 25.1619 47.349 25.2175C47.3195 25.2669 47.2555 25.3689 47.152 25.4857C47.0655 25.5835 46.8388 25.822 46.4572 25.984L45.6757 24.143ZM45.0067 26.4396L43.0575 25.9914C42.8833 26.7493 42.7531 27.3785 42.6766 27.8574C42.6391 28.0923 42.6072 28.3351 42.5952 28.5592C42.5892 28.6701 42.5856 28.8177 42.5986 28.9794C42.608 29.098 42.6386 29.4285 42.8145 29.7889L44.6119 28.9117L46.4093 28.0346C46.4969 28.2142 46.5365 28.3676 46.555 28.454C46.5749 28.5465 46.5825 28.6193 46.5859 28.661C46.5923 28.741 46.5887 28.7861 46.5894 28.7738C46.5906 28.7517 46.5982 28.6653 46.6265 28.4882C46.6817 28.143 46.7882 27.6168 46.9558 26.8878L45.0067 26.4396ZM44.6119 28.9117L42.8145 29.7889C43.3671 30.9212 44.5042 31.028 44.8344 31.0396C45.2756 31.0552 45.708 30.9679 46.0426 30.8825L45.5477 28.9447L45.0528 27.0069C44.8421 27.0607 44.846 27.0376 44.9752 27.0421C45.044 27.0445 45.2564 27.0576 45.5214 27.1744C45.819 27.3056 46.1839 27.5728 46.4093 28.0346L44.6119 28.9117ZM45.5477 28.9447L46.0996 30.867C46.2232 30.8315 46.2849 30.8252 46.2953 30.8245C46.3059 30.8238 46.2329 30.8309 46.1082 30.7964C45.9728 30.759 45.8064 30.6802 45.6533 30.5407C45.5027 30.4034 45.4218 30.2593 45.3831 30.1641L47.2359 29.4111L49.0887 28.658C48.753 27.8321 48.0871 27.1933 47.1733 26.9408C46.3845 26.7229 45.6061 26.8471 44.9957 27.0223L45.5477 28.9447ZM47.2359 29.4111L45.3949 30.1925C45.3515 30.0904 45.3143 29.9365 45.328 29.7544C45.3414 29.5762 45.3975 29.4507 45.4321 29.3911L47.1619 30.395L48.8917 31.3989C49.3775 30.5618 49.4776 29.5736 49.0769 28.6296L47.2359 29.4111ZM47.1619 30.395L45.4321 29.3911C45.4754 29.3165 45.5316 29.2572 45.5826 29.2187C45.629 29.1836 45.6468 29.1841 45.6051 29.1979L46.231 31.0974L46.8569 32.997C47.6536 32.7344 48.4084 32.2316 48.8917 31.3989L47.1619 30.395ZM46.231 31.0974L45.6242 29.1917C44.8681 29.4324 44.602 29.3392 44.6007 29.3387C44.6006 29.3387 44.6012 29.3389 44.6023 29.3395C44.6035 29.34 44.605 29.3408 44.6069 29.3418C44.6109 29.3439 44.6151 29.3466 44.6192 29.3496C44.6284 29.3562 44.6297 29.3592 44.6234 29.3517C44.6099 29.3357 44.5504 29.2569 44.4863 29.0564L42.5814 29.666L40.6766 30.2756C41.0589 31.4702 41.8303 32.5488 43.1402 33.0626C44.3554 33.5392 45.663 33.3772 46.8377 33.0032L46.231 31.0974ZM42.5814 29.666L44.4637 28.9899C44.4357 28.9119 44.3787 28.6602 44.443 28.1317L42.4576 27.8904L40.4722 27.649C40.3632 28.5461 40.3888 29.4782 40.6992 30.3422L42.5814 29.666ZM42.4576 27.8904L44.443 28.1317C44.515 27.5392 44.6687 26.7699 44.9211 25.8072L42.9865 25.2999L41.052 24.7925C40.7725 25.8583 40.5735 26.816 40.4722 27.649L42.4576 27.8904ZM42.9865 25.2999L44.9146 25.8316C45.0572 25.3142 45.169 24.876 45.2403 24.537C45.275 24.372 45.3091 24.1886 45.3286 24.0119C45.3381 23.9253 45.349 23.7986 45.3464 23.6543C45.3448 23.5628 45.3391 23.2262 45.1787 22.8484L43.3377 23.6298L41.4967 24.4113C41.4117 24.2111 41.3798 24.0416 41.3661 23.9506C41.3513 23.8514 41.3479 23.7724 41.3471 23.7259C41.3454 23.6359 41.3522 23.5777 41.3527 23.5736C41.354 23.5621 41.3497 23.6005 41.3259 23.7139C41.2801 23.9315 41.1942 24.2763 41.0585 24.7681L42.9865 25.2999ZM43.3377 23.6298L45.1787 22.8484C44.91 22.2154 44.4129 21.8865 44.2456 21.7794C44.0074 21.627 43.7547 21.5118 43.5385 21.4244L42.7893 23.2788L42.0401 25.1332C42.1453 25.1757 42.1447 25.1839 42.0893 25.1485C42.0596 25.1295 41.9798 25.0762 41.883 24.9819C41.792 24.8933 41.6221 24.7067 41.4967 24.4113L43.3377 23.6298ZM42.7893 23.2788L43.5385 21.4244C43.4814 21.4014 43.4361 21.3818 43.4013 21.3658C43.366 21.3497 43.346 21.3393 43.3382 21.3351C43.3347 21.3332 43.3358 21.3337 43.3407 21.3367C43.3456 21.3396 43.356 21.346 43.371 21.3561C43.3857 21.3661 43.4074 21.3814 43.4341 21.4025C43.4606 21.4234 43.4957 21.4528 43.536 21.4914L42.1517 22.9349L40.7674 24.3784C41.1783 24.7725 41.7243 25.0056 42.0401 25.1332L42.7893 23.2788ZM42.1517 22.9349L43.6511 21.6114C43.7655 21.741 43.82 21.8507 43.8392 21.8929C43.8595 21.9376 43.8597 21.9503 43.8505 21.9143L41.9121 22.4067L39.9737 22.8991C40.0673 23.2677 40.2477 23.8002 40.6523 24.2585L42.1517 22.9349ZM41.9121 22.4067L43.8646 21.9735C43.8723 22.008 43.9049 22.2002 43.8057 22.4575C43.7025 22.7253 43.5303 22.8729 43.4476 22.9267L42.3581 21.2495L41.2686 19.5723C40.7764 19.8921 40.3251 20.3656 40.0733 21.0191C39.8254 21.6622 39.8398 22.3 39.9596 22.8399L41.9121 22.4067ZM42.3581 21.2495L43.4476 22.9267C43.4109 22.9505 43.3605 22.9766 43.2981 22.9969C43.2354 23.0174 43.174 23.0277 43.1195 23.0303C43.0104 23.0356 42.9752 23.0088 43.039 23.0346L43.7882 21.1802L44.5374 19.3258C43.5271 18.9176 42.3398 18.8764 41.2686 19.5723L42.3581 21.2495ZM43.7882 21.1802L43.039 23.0346C43.4315 23.1931 43.9859 23.2976 44.5951 23.1102C45.1973 22.925 45.5901 22.5354 45.8207 22.206L44.1823 21.059L42.5439 19.912C42.6724 19.7284 42.9485 19.4317 43.4194 19.2869C43.8972 19.14 44.3056 19.2322 44.5374 19.3258L43.7882 21.1802ZM48.5136 31.7392L50.3233 30.8876L50.2985 30.8351L50.2708 30.7841L48.5136 31.7392ZM49.042 30.3781L49.8789 32.1946L49.8877 32.1905L49.8964 32.1864L49.042 30.3781ZM50.2224 30.553L51.5461 29.0537V29.0537L50.2224 30.553ZM49.5178 32.4038L49.5216 34.4038V34.4038L49.5178 32.4038ZM50.7304 25.4518L52.6808 25.8945V25.8945L50.7304 25.4518ZM52.2117 21.3048L50.5058 20.2609V20.2609L52.2117 21.3048ZM52.7482 20.8313L51.9667 18.9903L51.9326 19.0047L51.8991 19.0204L52.7482 20.8313ZM54.1468 21.2669L52.4567 22.3363L52.4753 22.3656L52.4948 22.3943L54.1468 21.2669ZM54.1888 22.0173L56.1355 22.4758L56.1355 22.4758L54.1888 22.0173ZM53.3325 24.7775L55.2225 25.4316L55.228 25.4156L55.2333 25.3995L53.3325 24.7775ZM51.9546 27.9741L52.8996 29.7368L52.8996 29.7368L51.9546 27.9741ZM50.5382 27.3155L52.4712 26.8023L52.4519 26.7295L52.4271 26.6583L50.5382 27.3155ZM48.5136 31.7392L50.2708 30.7841C50.3199 30.8744 50.3774 31.0222 50.3906 31.2154C50.404 31.4115 50.3668 31.5839 50.315 31.7121L48.4606 30.9629L46.6063 30.2136C46.2652 31.0577 46.3468 31.9408 46.7565 32.6944L48.5136 31.7392ZM48.4606 30.9629L50.315 31.7121C50.2695 31.8247 50.1976 31.9369 50.103 32.0321C50.0111 32.1244 49.9256 32.173 49.8789 32.1946L49.042 30.3781L48.2052 28.5616C47.5158 28.8792 46.9239 29.4274 46.6063 30.2136L48.4606 30.9629ZM49.042 30.3781L49.8964 32.1864C49.8201 32.2224 49.6261 32.2879 49.3639 32.249C49.1047 32.2106 48.9474 32.0953 48.8988 32.0523L50.2224 30.553L51.5461 29.0537C51.1371 28.6926 50.6029 28.389 49.9502 28.2922C49.2945 28.1951 48.6905 28.3322 48.1876 28.5698L49.042 30.3781ZM50.2224 30.553L48.8988 32.0523C48.8313 31.9928 48.6748 31.8194 48.6079 31.5241C48.5422 31.2338 48.6083 31.0246 48.6314 30.9672L50.4858 31.7164L52.3402 32.4656C52.5482 31.9508 52.6627 31.3189 52.5092 30.6409C52.3546 29.9577 51.9739 29.4314 51.5461 29.0537L50.2224 30.553ZM50.4858 31.7164L48.6314 30.9672C48.647 30.9288 48.7283 30.7561 48.9472 30.6006C49.1759 30.4382 49.4004 30.404 49.514 30.4038L49.5178 32.4038L49.5216 34.4038C50.0958 34.4027 50.7118 34.2535 51.2632 33.8619C51.8048 33.4773 52.1399 32.9614 52.3402 32.4656L50.4858 31.7164ZM49.5178 32.4038L49.514 30.4038C49.6179 30.4036 49.8176 30.4331 50.0251 30.5705C50.2249 30.7027 50.3063 30.8517 50.3233 30.8876L48.5136 31.7392L46.704 32.5909C46.9298 33.0707 47.2832 33.5525 47.8176 33.9062C48.3599 34.265 48.9572 34.4049 49.5216 34.4038L49.5178 32.4038ZM50.7304 25.4518L52.6808 25.8945C52.8822 25.0071 53.1227 24.2287 53.3961 23.5521L51.5418 22.8029L49.6874 22.0537C49.3214 22.9594 49.0211 23.947 48.78 25.0091L50.7304 25.4518ZM51.5418 22.8029L53.3961 23.5521C53.5513 23.1681 53.6769 22.8702 53.7747 22.6515C53.8836 22.4081 53.9268 22.3337 53.9177 22.3487L52.2117 21.3048L50.5058 20.2609C50.2749 20.6382 49.9894 21.3062 49.6874 22.0537L51.5418 22.8029ZM52.2117 21.3048L53.9177 22.3487C53.8793 22.4115 53.8277 22.4745 53.7646 22.5302C53.7021 22.5853 53.6424 22.6209 53.5973 22.6421L52.7482 20.8313L51.8991 19.0204C51.3315 19.2866 50.847 19.7032 50.5058 20.2609L52.2117 21.3048ZM52.7482 20.8313L53.5297 22.6723C53.527 22.6734 53.2903 22.7692 52.9457 22.6618C52.6005 22.5543 52.4593 22.3404 52.4567 22.3363L54.1468 21.2669L55.8369 20.1975C55.4921 19.6525 54.9466 19.0955 54.1353 18.8428C53.3244 18.5902 52.5595 18.7386 51.9667 18.9903L52.7482 20.8313ZM54.1468 21.2669L52.4948 22.3943C52.2904 22.0947 52.2491 21.8162 52.2417 21.6853C52.2347 21.5595 52.2544 21.5063 52.2421 21.5588L54.1888 22.0173L56.1355 22.4758C56.2471 22.0022 56.4028 21.0246 55.7988 20.1396L54.1468 21.2669ZM54.1888 22.0173L52.2421 21.5588C52.1859 21.7971 51.9341 22.6202 51.4317 24.1554L53.3325 24.7775L55.2333 25.3995C55.7118 23.9373 56.0308 22.9202 56.1355 22.4758L54.1888 22.0173ZM53.3325 24.7775L51.4424 24.1234C50.9179 25.6391 50.6262 26.4571 50.5404 26.6693L52.3948 27.4185L54.2492 28.1678C54.3832 27.8361 54.7166 26.8933 55.2225 25.4316L53.3325 24.7775ZM52.3948 27.4185L50.5404 26.6693C50.5406 26.669 50.5649 26.6075 50.6347 26.5194C50.7084 26.4264 50.8302 26.3076 51.0097 26.2114L51.9546 27.9741L52.8996 29.7368C53.6357 29.3422 54.0346 28.6987 54.2492 28.1678L52.3948 27.4185ZM51.9546 27.9741L51.0097 26.2114C51.3369 26.036 51.6294 26.0271 51.7744 26.0385C51.9096 26.049 51.9634 26.0794 51.9093 26.0576L51.1601 27.9119L50.4109 29.7663C50.8968 29.9626 51.8992 30.2731 52.8996 29.7368L51.9546 27.9741ZM51.1601 27.9119L51.9093 26.0576C51.91 26.0578 51.9328 26.067 51.9704 26.09C52.0083 26.1132 52.0651 26.1529 52.1293 26.2145C52.2693 26.3487 52.4041 26.5493 52.4712 26.8023L50.5382 27.3155L48.6052 27.8288C48.8934 28.9144 49.7297 29.4911 50.4109 29.7663L51.1601 27.9119ZM50.5382 27.3155L52.4271 26.6583C52.4651 26.7675 52.4811 26.8531 52.4882 26.8995C52.4955 26.9478 52.4966 26.9777 52.4967 26.983C52.497 26.9901 52.4957 26.9523 52.5058 26.8539C52.5262 26.656 52.5787 26.344 52.6808 25.8945L50.7304 25.4518L48.78 25.0091C48.6608 25.5344 48.5706 26.0204 48.5269 26.4437C48.4926 26.7771 48.4457 27.3878 48.6493 27.9728L50.5382 27.3155Z" fill="#F05B25" mask="url(#path-1-outside-1_21_267)"/>
</svg>
