<svg width="447" height="96" viewBox="0 0 447 96" fill="none" xmlns="http://www.w3.org/2000/svg">
<path d="M23.04 7.112C30.144 7.112 36.384 8.552 41.76 11.432C48.032 13.544 51.072 19.88 50.88 30.44C50.688 42.92 44.96 49.16 33.696 49.16C30.368 49.16 26.592 48.584 22.368 47.432C21.792 47.688 21.504 48.264 21.504 49.16C21.504 50.504 22.368 53.544 24.096 58.28C25.888 62.952 26.784 66.44 26.784 68.744C26.784 71.368 25.856 73.16 24 74.12C21.696 75.592 19.008 76.328 15.936 76.328C10.944 76.328 7.392 75.048 5.28 72.488C4.128 70.568 3.2 65.288 2.496 56.648C1.92 50.056 1.632 44.456 1.632 39.848C1.632 28.52 2.528 20.872 4.32 16.904C7.2 10.376 13.44 7.112 23.04 7.112ZM22.08 28.616C22.08 29.96 22.688 31.08 23.904 31.976C24.928 32.808 26.144 33.32 27.552 33.512C31.456 34.024 33.76 32.104 34.464 27.752C34.464 25.256 31.776 24.008 26.4 24.008C23.52 24.008 22.08 25.544 22.08 28.616ZM117.09 20.36C117.602 19.208 119.106 18.344 121.602 17.768C123.394 17.32 125.186 17.096 126.978 17.096C131.586 17.096 134.018 18.184 134.274 20.36C134.914 21.064 135.106 22.12 134.85 23.528C134.53 25.192 134.338 26.184 134.274 26.504C134.274 27.272 135.01 27.56 136.482 27.368C142.562 23.848 148.738 22.088 155.01 22.088C156.482 22.088 157.954 22.184 159.426 22.376C161.282 22.248 162.722 23.048 163.746 24.776C164.514 26.12 164.898 27.816 164.898 29.864C164.898 31.4 164.642 32.84 164.13 34.184C163.426 35.912 162.434 36.84 161.154 36.968C154.882 38.312 150.178 39.304 147.042 39.944C141.154 41.288 137.57 42.984 136.29 45.032C135.394 45.928 134.946 47.528 134.946 49.832C134.946 51.88 135.362 54.984 136.194 59.144C137.026 63.304 137.442 66.408 137.442 68.456C137.442 70.44 137.026 71.784 136.194 72.488C134.914 75.176 132.002 76.52 127.458 76.52C122.722 76.52 119.842 75.176 118.818 72.488C117.282 71.592 116.066 66.408 115.17 56.936C114.53 50.344 114.21 44.584 114.21 39.656C114.21 29.288 115.17 22.856 117.09 20.36ZM171.84 20.36C172.352 19.208 173.856 18.344 176.352 17.768C178.144 17.32 179.936 17.096 181.728 17.096C186.336 17.096 188.768 18.184 189.024 20.36C189.664 21.064 189.856 22.12 189.6 23.528C189.28 25.192 189.088 26.184 189.024 26.504C189.024 27.272 189.76 27.56 191.232 27.368C197.312 23.848 203.488 22.088 209.76 22.088C211.232 22.088 212.704 22.184 214.176 22.376C216.032 22.248 217.472 23.048 218.496 24.776C219.264 26.12 219.648 27.816 219.648 29.864C219.648 31.4 219.392 32.84 218.88 34.184C218.176 35.912 217.184 36.84 215.904 36.968C209.632 38.312 204.928 39.304 201.792 39.944C195.904 41.288 192.32 42.984 191.04 45.032C190.144 45.928 189.696 47.528 189.696 49.832C189.696 51.88 190.112 54.984 190.944 59.144C191.776 63.304 192.192 66.408 192.192 68.456C192.192 70.44 191.776 71.784 190.944 72.488C189.664 75.176 186.752 76.52 182.208 76.52C177.472 76.52 174.592 75.176 173.568 72.488C172.032 71.592 170.816 66.408 169.92 56.936C169.28 50.344 168.96 44.584 168.96 39.656C168.96 29.288 169.92 22.856 171.84 20.36ZM258.654 7.016C261.086 7.46399 263.038 8.55199 264.51 10.28C265.982 11.944 266.718 13.992 266.718 16.424C266.718 19.24 265.534 21.352 263.166 22.76C262.142 23.336 259.646 24.168 255.678 25.256C250.814 26.6 247.71 28.264 246.366 30.248C244.382 33.192 243.39 37.256 243.39 42.44C243.39 47.304 244.606 51.432 247.038 54.824C249.79 56.616 252.446 57.512 255.006 57.512C257.822 57.512 260.894 56.456 264.222 54.344C265.374 53.768 266.526 53.48 267.678 53.48C269.598 53.48 271.102 54.216 272.19 55.688C273.342 57.096 273.854 58.76 273.726 60.68C273.406 64.584 272.542 67.464 271.134 69.32C269.79 71.176 267.006 73 262.782 74.792C259.902 76.008 257.022 76.616 254.142 76.616C251.966 76.616 248.83 76.104 244.734 75.08C239.102 72.904 236.062 71.688 235.614 71.432C233.694 70.344 231.582 68.392 229.278 65.576C227.23 63.08 225.63 59.016 224.478 53.384C223.582 48.776 223.134 44.328 223.134 40.04C223.134 36.136 223.518 33.064 224.286 30.824C227.934 23.144 232.83 17.128 238.974 12.776C242.622 10.152 246.302 8.488 250.014 7.784C250.974 7.592 253.854 7.336 258.654 7.016ZM282.682 19.208C286.586 15.368 293.082 13.448 302.17 13.448C311.194 13.448 317.53 15.624 321.178 19.976C323.802 21.512 325.658 26.408 326.746 34.664C327.45 39.848 327.802 45.448 327.802 51.464C327.802 61.448 326.97 68.328 325.306 72.104C324.73 75.176 322.298 76.712 318.01 76.712C314.618 76.712 312.698 75.72 312.25 73.736C309.178 75.08 305.786 75.752 302.074 75.752C294.202 75.752 287.994 73.704 283.45 69.608C280.25 65.448 278.65 60.616 278.65 55.112C278.65 50.504 280.026 46.92 282.778 44.36C286.49 40.904 290.746 39.176 295.546 39.176C298.554 39.176 302.778 40.168 308.218 42.152C310.65 42.152 311.866 40.776 311.866 38.024C311.866 36.232 311.29 34.568 310.138 33.032C308.986 31.432 307.578 30.344 305.914 29.768C303.802 29.064 301.69 28.712 299.578 28.712C297.53 28.712 295.098 29.352 292.282 30.632C289.466 31.912 287.642 32.552 286.81 32.552C285.53 32.552 284.154 32.072 282.682 31.112C281.082 28.872 280.282 26.728 280.282 24.68C280.282 22.568 281.082 20.744 282.682 19.208ZM294.01 56.84C294.01 58.376 294.458 59.432 295.354 60.008C295.866 60.328 296.986 60.584 298.714 60.776C300.57 60.968 302.202 60.808 303.61 60.296C305.402 59.656 306.298 58.472 306.298 56.744C306.298 53.928 304.026 52.2 299.482 51.56C297.818 51.304 296.474 51.688 295.45 52.712C294.49 53.736 294.01 55.112 294.01 56.84ZM383.268 26.6C383.716 27.24 383.94 27.944 383.94 28.712C383.94 30.504 383.012 32.2 381.156 33.8C379.364 35.4 377.54 36.2 375.684 36.2C374.98 36.2 374.308 36.04 373.668 35.72C370.276 33.992 367.3 33.128 364.74 33.128C363.204 33.128 361.924 33.448 360.9 34.088C359.684 34.92 359.14 36.04 359.268 37.448C359.46 40.072 363.684 42.408 371.94 44.456C376.484 45.608 379.748 47.208 381.732 49.256C384.036 51.624 385.188 55.016 385.188 59.432C385.188 66.984 381.444 72.072 373.956 74.696C369.988 76.104 365.156 76.808 359.46 76.808C354.66 76.808 350.148 76.168 345.924 74.888C340.676 73.224 336.868 70.824 334.5 67.688C334.5 64.296 334.692 61.96 335.076 60.68C336.1 57.224 338.212 55.496 341.412 55.496C342.82 55.496 345.124 56.296 348.324 57.896C351.524 59.496 353.892 60.296 355.428 60.296C356.9 60.296 358.244 59.784 359.46 58.76C359.588 58.312 359.652 57.928 359.652 57.608C359.652 55.624 356.612 54.216 350.532 53.384C346.308 52.808 342.884 51.08 340.26 48.2C337.764 45.512 336.516 42.408 336.516 38.888C336.516 32.616 339.492 27.336 345.444 23.048C350.82 19.208 356.772 17.288 363.3 17.288C368.676 17.288 372.9 18.152 375.972 19.88C377.892 20.968 380.324 23.208 383.268 26.6ZM418.595 17.192C421.155 17 422.499 16.904 422.627 16.904C433.379 16.904 438.755 23.272 438.755 36.008C437.283 44.712 432.771 49.064 425.219 49.064C423.875 49.064 421.859 48.808 419.171 48.296C416.547 47.72 414.627 47.432 413.411 47.432C412.963 47.432 412.643 47.496 412.451 47.624C411.363 48.264 410.819 49.192 410.819 50.408C410.819 51.496 411.203 52.52 411.971 53.48C412.803 54.376 413.763 54.984 414.851 55.304C419.843 56.648 422.883 57.32 423.971 57.32C426.723 57.32 429.411 56.488 432.035 54.824C433.187 54.312 434.339 54.056 435.491 54.056C437.411 54.056 438.947 54.728 440.099 56.072C441.251 57.352 441.731 58.952 441.539 60.872C441.219 64.584 440.355 67.336 438.947 69.128C437.539 70.856 434.755 72.584 430.595 74.312C427.779 75.464 424.899 76.04 421.955 76.04C419.779 76.04 416.643 75.56 412.547 74.6C407.043 72.552 404.003 71.368 403.427 71.048C401.443 69.96 399.331 68.136 397.091 65.576C393.187 61.032 391.235 54.824 391.235 46.952C391.235 45.032 391.523 42.696 392.099 39.944C394.723 27.272 400.579 19.912 409.667 17.864C413.315 17.48 416.291 17.256 418.595 17.192ZM413.603 32.072C413.603 33.224 414.115 34.152 415.139 34.856C416.163 35.496 417.283 35.816 418.499 35.816C419.651 35.816 420.739 35.496 421.763 34.856C422.787 34.152 423.299 33.224 423.299 32.072C423.299 30.92 422.787 30.024 421.763 29.384C420.739 28.68 419.651 28.328 418.499 28.328C417.283 28.328 416.163 28.68 415.139 29.384C414.115 30.024 413.603 30.92 413.603 32.072Z" fill="#6B5F4F"/>
<path fill-rule="evenodd" clip-rule="evenodd" d="M66 14.5C64.5 14.5 60.1702 16.015 60.1702 19.2929C60.1702 20.8929 62.3405 23.0858 63.1702 26.2929C64 29.5 63 30.5 62 32C61 33.5 58 39 57 40.5C55.6133 42.5802 53.5 47 52.5 50C51.5 53 51.5 58 52.5 61.5C53.5 65 54.5 66.5 58 70C61.5 73.5 66.5 75 70.5 75.5C74.5 76 78.5 76 82.5 75.5C85.6379 75.1078 90.5 74.5 94.5 70.5C97.7 67.3 100.167 63.1667 101 61.5C101.333 61 102.1 59.5 102.5 57.5C103 55 103.5 51.5 103.5 50C103.5 48.5 103.5 43.5 102.5 40C101.5 36.5 100 30 97.5 25.5C95 21 93 18 91.5 16.5C90 15 89.5 14.5 88.5 14C87.5 13.5 87 13 87 13.5C87 14 87.5 16.5 87.5 17.5C87.5 18.5 87.5 19 87 19C86.5 19 84 19 82 20C80 21 78.5 22 77.5 23.5C76.5 25 75.6684 26.0292 75.5 26.5C75.3041 27.0477 74.2133 26.0697 74 26.5C73.6859 27.1335 73.5 30.5 74.5 32C75.5 33.5 76.5 34 78.5 35C80.5 36 83.5 37 84.5 38C85.3 38.8 85.5 40 85.5 40C85.5 40 86 42 85.5 42.7929C85 43.5858 85 44.5 82.5 45C80 45.5 73 48 71.5 49C70 50 68.25 51.5 67.5 52.5C66 54.5 66 55 65.5 57.5C65.1 59.5 65.3333 60.8333 65.5 61.5C65.6667 62.5 66.3 64.9 67.5 66.5C69 68.5 70 69.5 71.5 70.5C72.7 71.3 73.8333 72 74.5 72C73.3333 72.3333 70.3 72.7 67.5 71.5C64 70 62 68.5 60 66C58.4 64 57.6667 60.5 57.5 59C57.5 57.6667 57.7 54.5 58.5 52.5C59.5 50 61.5 45 64.5 41C67.5 37 70.5 31.5 71 29.5C71.5 27.5 72 26 71.5 22C71 18 68.5 15.5 68.5 15.5C68.5 15.5 67.5 14.5 66 14.5ZM80.25 24.7929C80.25 23.7507 81.1564 22.7929 82.5 22.7929C83.8436 22.7929 85 24 84.75 25.2929C84.5 26.5858 83.7224 27.2929 82.5 27.2929C81.2776 27.2929 80.25 25.8351 80.25 24.7929Z" fill="#6B5F4F"/>
</svg>
